<svg xmlns="http://www.w3.org/2000/svg" xmlns:xlink="http://www.w3.org/1999/xlink" viewBox="0 0 271.99 191.45"><defs><style>.cls-1,.cls-2{fill:none;}.cls-2{stroke:#fff;stroke-miterlimit:10;stroke-width:2.83px;}.cls-3{fill:#232323;}.cls-4{clip-path:url(#clip-path);}.cls-5{fill:url(#linear-gradient);}.cls-6{fill:url(#linear-gradient-2);}.cls-7{fill:url(#linear-gradient-3);}.cls-8{fill:url(#linear-gradient-4);}.cls-9{fill:url(#linear-gradient-5);}.cls-10{fill:url(#linear-gradient-6);}.cls-11{fill:url(#linear-gradient-7);}.cls-12{fill:url(#linear-gradient-8);}.cls-13{fill:url(#linear-gradient-9);}.cls-14{fill:url(#linear-gradient-10);}.cls-15{fill:url(#linear-gradient-11);}.cls-16{fill:url(#linear-gradient-12);}.cls-17{fill:url(#linear-gradient-13);}.cls-18{fill:url(#linear-gradient-14);}.cls-19{fill:url(#linear-gradient-15);}.cls-20{fill:url(#linear-gradient-16);}.cls-21{fill:url(#linear-gradient-17);}.cls-22{fill:url(#linear-gradient-18);}.cls-23{fill:url(#linear-gradient-19);}.cls-24{fill:url(#linear-gradient-20);}.cls-25{fill:url(#linear-gradient-21);}.cls-26{fill:url(#linear-gradient-22);}.cls-27{fill:url(#linear-gradient-23);}.cls-28{fill:url(#linear-gradient-24);}.cls-29{fill:url(#linear-gradient-25);}.cls-30{fill:url(#linear-gradient-26);}.cls-31{fill:url(#linear-gradient-27);}.cls-32{fill:url(#linear-gradient-28);}.cls-33{fill:url(#linear-gradient-29);}.cls-34{fill:url(#linear-gradient-30);}.cls-35{fill:url(#linear-gradient-31);}.cls-36{fill:url(#linear-gradient-32);}.cls-37{fill:url(#linear-gradient-33);}.cls-38{fill:url(#linear-gradient-34);}.cls-39{fill:url(#linear-gradient-35);}.cls-40{fill:url(#linear-gradient-36);}.cls-41{fill:url(#linear-gradient-37);}.cls-42{fill:url(#linear-gradient-38);}.cls-43{fill:url(#linear-gradient-39);}.cls-44{fill:url(#linear-gradient-40);}.cls-45{fill:url(#linear-gradient-41);}.cls-46{fill:url(#linear-gradient-42);}.cls-47{fill:url(#linear-gradient-43);}.cls-48{fill:url(#linear-gradient-44);}.cls-49{fill:url(#linear-gradient-45);}.cls-50{fill:url(#linear-gradient-46);}.cls-51{fill:url(#linear-gradient-47);}.cls-52{fill:url(#linear-gradient-48);}.cls-53{fill:url(#linear-gradient-49);}</style><clipPath id="clip-path"><circle class="cls-1" cx="134.09" cy="95.72" r="91.62"/></clipPath><linearGradient id="linear-gradient" x1="86.59" y1="71.75" x2="89.13" y2="125.15" gradientUnits="userSpaceOnUse"><stop offset="0" stop-color="#ff5d20"/><stop offset="0.09" stop-color="#ff601c"/><stop offset="0.18" stop-color="#ff690f"/><stop offset="0.26" stop-color="#ff7400"/><stop offset="0.34" stop-color="#ff8126"/><stop offset="0.5" stop-color="#ff9c79"/><stop offset="0.56" stop-color="#ef9994"/><stop offset="0.81" stop-color="#b08dff"/><stop offset="1" stop-color="#a4dbf8"/></linearGradient><linearGradient id="linear-gradient-2" x1="190.83" y1="65.36" x2="193.37" y2="118.69" xlink:href="#linear-gradient"/><linearGradient id="linear-gradient-3" x1="91.81" y1="71.61" x2="94.35" y2="124.95" xlink:href="#linear-gradient"/><linearGradient id="linear-gradient-4" x1="185.61" y1="65.52" x2="188.15" y2="118.86" xlink:href="#linear-gradient"/><linearGradient id="linear-gradient-5" x1="196.05" y1="65.19" x2="198.59" y2="118.53" xlink:href="#linear-gradient"/><linearGradient id="linear-gradient-6" x1="102.44" y1="75.28" x2="104.56" y2="119.96" xlink:href="#linear-gradient"/><linearGradient id="linear-gradient-7" x1="201.27" y1="65.02" x2="203.81" y2="118.37" xlink:href="#linear-gradient"/><linearGradient id="linear-gradient-8" x1="175.17" y1="65.84" x2="177.71" y2="119.19" xlink:href="#linear-gradient"/><linearGradient id="linear-gradient-9" x1="253.47" y1="63.38" x2="256.01" y2="116.73" xlink:href="#linear-gradient"/><linearGradient id="linear-gradient-10" x1="159.51" y1="66.34" x2="162.05" y2="119.69" xlink:href="#linear-gradient"/><linearGradient id="linear-gradient-11" x1="107.69" y1="75.75" x2="109.75" y2="119.11" xlink:href="#linear-gradient"/><linearGradient id="linear-gradient-12" x1="112.87" y1="74.83" x2="115.01" y2="119.87" xlink:href="#linear-gradient"/><linearGradient id="linear-gradient-13" x1="211.71" y1="64.68" x2="214.25" y2="118.05" xlink:href="#linear-gradient"/><linearGradient id="linear-gradient-14" x1="164.73" y1="66.16" x2="167.27" y2="119.53" xlink:href="#linear-gradient"/><linearGradient id="linear-gradient-15" x1="149.3" y1="71.4" x2="151.43" y2="116.11" xlink:href="#linear-gradient"/><linearGradient id="linear-gradient-16" x1="118.4" y1="81.09" x2="119.89" y2="112.55" xlink:href="#linear-gradient"/><linearGradient id="linear-gradient-17" x1="144.08" y1="71.53" x2="146.21" y2="116.26" xlink:href="#linear-gradient"/><linearGradient id="linear-gradient-18" x1="154.29" y1="66.48" x2="156.83" y2="119.87" xlink:href="#linear-gradient"/><linearGradient id="linear-gradient-19" x1="139.19" y1="78.59" x2="140.71" y2="110.54" xlink:href="#linear-gradient"/><linearGradient id="linear-gradient-20" x1="248.25" y1="63.53" x2="250.79" y2="116.9" xlink:href="#linear-gradient"/><linearGradient id="linear-gradient-21" x1="216.93" y1="64.51" x2="219.47" y2="117.89" xlink:href="#linear-gradient"/><linearGradient id="linear-gradient-22" x1="123.6" y1="80.56" x2="125.14" y2="112.93" xlink:href="#linear-gradient"/><linearGradient id="linear-gradient-23" x1="134.01" y1="79.71" x2="135.44" y2="109.77" xlink:href="#linear-gradient"/><linearGradient id="linear-gradient-24" x1="169.95" y1="65.97" x2="172.49" y2="119.39" xlink:href="#linear-gradient"/><linearGradient id="linear-gradient-25" x1="206.49" y1="64.82" x2="209.03" y2="118.23" xlink:href="#linear-gradient"/><linearGradient id="linear-gradient-26" x1="243.03" y1="63.68" x2="245.57" y2="117.07" xlink:href="#linear-gradient"/><linearGradient id="linear-gradient-27" x1="232.59" y1="63.99" x2="235.13" y2="117.41" xlink:href="#linear-gradient"/><linearGradient id="linear-gradient-28" x1="258.69" y1="63.17" x2="261.23" y2="116.59" xlink:href="#linear-gradient"/><linearGradient id="linear-gradient-29" x1="81.37" y1="71.94" x2="83.91" y2="125.28" xlink:href="#linear-gradient"/><linearGradient id="linear-gradient-30" x1="180.39" y1="65.68" x2="182.93" y2="119.03" xlink:href="#linear-gradient"/><linearGradient id="linear-gradient-31" x1="70.93" y1="72.26" x2="73.47" y2="125.61" xlink:href="#linear-gradient"/><linearGradient id="linear-gradient-32" x1="60.49" y1="72.58" x2="63.03" y2="125.95" xlink:href="#linear-gradient"/><linearGradient id="linear-gradient-33" x1="76.15" y1="72.09" x2="78.69" y2="125.46" xlink:href="#linear-gradient"/><linearGradient id="linear-gradient-34" x1="97.03" y1="71.43" x2="99.57" y2="124.8" xlink:href="#linear-gradient"/><linearGradient id="linear-gradient-35" x1="55.55" y1="78.7" x2="57.44" y2="118.35" xlink:href="#linear-gradient"/><linearGradient id="linear-gradient-36" x1="65.71" y1="72.41" x2="68.25" y2="125.8" xlink:href="#linear-gradient"/><linearGradient id="linear-gradient-37" x1="29.17" y1="73.56" x2="31.71" y2="126.95" xlink:href="#linear-gradient"/><linearGradient id="linear-gradient-38" x1="50.33" y1="78.8" x2="52.22" y2="118.5" xlink:href="#linear-gradient"/><linearGradient id="linear-gradient-39" x1="34.39" y1="73.39" x2="36.93" y2="126.8" xlink:href="#linear-gradient"/><linearGradient id="linear-gradient-40" x1="44.83" y1="73.03" x2="47.37" y2="126.51" xlink:href="#linear-gradient"/><linearGradient id="linear-gradient-41" x1="23.95" y1="73.69" x2="26.49" y2="127.17" xlink:href="#linear-gradient"/><linearGradient id="linear-gradient-42" x1="39.61" y1="73.19" x2="42.15" y2="126.68" xlink:href="#linear-gradient"/><linearGradient id="linear-gradient-43" x1="128.58" y1="75.38" x2="130.4" y2="113.7" xlink:href="#linear-gradient"/><linearGradient id="linear-gradient-44" x1="222.15" y1="64.28" x2="224.69" y2="117.77" xlink:href="#linear-gradient"/><linearGradient id="linear-gradient-45" x1="227.37" y1="64.12" x2="229.91" y2="117.6" xlink:href="#linear-gradient"/><linearGradient id="linear-gradient-46" x1="237.81" y1="63.79" x2="240.35" y2="117.27" xlink:href="#linear-gradient"/><linearGradient id="linear-gradient-47" x1="263.9" y1="62.96" x2="266.45" y2="116.45" xlink:href="#linear-gradient"/><linearGradient id="linear-gradient-48" x1="269.12" y1="62.72" x2="271.67" y2="116.33" xlink:href="#linear-gradient"/><linearGradient id="linear-gradient-49" x1="39.22" y1="95.72" x2="230.67" y2="95.72" xlink:href="#linear-gradient"/></defs><g id="Layer_2" data-name="Layer 2"><g id="Layer_1-2" data-name="Layer 1"><circle class="cls-2" cx="95.3" cy="95.72" r="93.88"/><circle class="cls-3" cx="134.09" cy="95.72" r="93.88"/><g class="cls-4"><rect class="cls-5" x="86.45" y="84.02" width="2.58" height="23.77"/><rect class="cls-6" x="191" y="53.91" width="2.58" height="84"/><rect class="cls-7" x="91.67" y="53" width="2.58" height="85.8"/><rect class="cls-8" x="185.77" y="65.05" width="2.58" height="61.7"/><rect class="cls-9" x="196.22" y="60.38" width="2.58" height="71.04"/><rect class="cls-10" x="102.13" y="73.16" width="2.58" height="45.48"/><rect class="cls-11" x="201.45" y="68.74" width="2.58" height="54.32"/><rect class="cls-12" x="175.31" y="68.74" width="2.58" height="54.32"/><rect class="cls-13" x="253.73" y="68.74" width="2.58" height="54.32"/><rect class="cls-14" x="159.63" y="68.74" width="2.58" height="54.32"/><rect class="cls-15" x="107.36" y="77.24" width="2.58" height="37.33"/><rect class="cls-16" x="112.58" y="80.04" width="2.58" height="31.72"/><rect class="cls-17" x="211.91" y="77.1" width="2.58" height="37.61"/><rect class="cls-18" x="164.86" y="77.1" width="2.58" height="37.61"/><rect class="cls-19" x="149.18" y="80.16" width="2.58" height="31.48"/><rect class="cls-20" x="117.81" y="87.31" width="2.58" height="17.19"/><rect class="cls-21" x="143.95" y="83.66" width="2.58" height="24.49"/><rect class="cls-22" x="154.4" y="81.28" width="2.58" height="29.25"/><rect class="cls-23" x="138.72" y="87.17" width="2.58" height="17.46"/><rect class="cls-24" x="248.5" y="76.45" width="2.58" height="38.9"/><rect class="cls-25" x="217.13" y="81.28" width="2.58" height="29.25"/><rect class="cls-26" x="123.04" y="89.6" width="2.58" height="12.61"/><rect class="cls-27" x="133.49" y="90.05" width="2.58" height="11.7"/><rect class="cls-28" x="170.09" y="85.46" width="2.58" height="20.89"/><rect class="cls-29" x="206.68" y="85.46" width="2.58" height="20.89"/><rect class="cls-30" x="243.27" y="82.15" width="2.58" height="27.5"/><rect class="cls-31" x="232.82" y="85.46" width="2.58" height="20.89"/><rect class="cls-32" x="258.96" y="85.46" width="2.58" height="20.89"/><rect class="cls-33" x="81.22" y="60.38" width="2.58" height="71.04"/><rect class="cls-34" x="180.54" y="60.38" width="2.58" height="71.04"/><rect class="cls-35" x="70.76" y="68.74" width="2.58" height="54.32"/><rect class="cls-36" x="60.31" y="77.1" width="2.58" height="37.61"/><rect class="cls-37" x="75.99" y="77.1" width="2.58" height="37.61"/><rect class="cls-38" x="96.9" y="77.1" width="2.58" height="37.61"/><rect class="cls-39" x="55.08" y="85.06" width="2.58" height="21.69"/><rect class="cls-40" x="65.53" y="81.28" width="2.58" height="29.25"/><rect class="cls-41" x="28.94" y="81.28" width="2.58" height="29.25"/><rect class="cls-42" x="49.85" y="88.16" width="2.58" height="15.5"/><rect class="cls-43" x="34.17" y="85.46" width="2.58" height="20.89"/><rect class="cls-44" x="44.63" y="89.63" width="2.58" height="12.54"/><rect class="cls-45" x="23.71" y="89.63" width="2.58" height="12.54"/><rect class="cls-46" x="39.4" y="89.63" width="2.58" height="12.54"/><rect class="cls-47" x="128.27" y="91.43" width="2.58" height="8.95"/><rect class="cls-48" x="222.36" y="89.63" width="2.58" height="12.54"/><rect class="cls-49" x="227.59" y="89.63" width="2.58" height="12.54"/><rect class="cls-50" x="238.04" y="89.63" width="2.58" height="12.54"/><rect class="cls-51" x="264.18" y="89.63" width="2.58" height="12.54"/><rect class="cls-52" x="269.41" y="92.32" width="2.58" height="7.17"/></g><path class="cls-53" d="M135,191.45a95.73,95.73,0,1,1,95.72-95.73A95.83,95.83,0,0,1,135,191.45ZM135,3.68a92,92,0,1,0,92,92A92.15,92.15,0,0,0,135,3.68Z"/></g></g></svg>