<svg xmlns="http://www.w3.org/2000/svg" xmlns:xlink="http://www.w3.org/1999/xlink" viewBox="0 0 285.4 310.28"><defs><style>.cls-1,.cls-3{fill:none;}.cls-2{fill:#fff;}.cls-3{stroke:#fff;stroke-miterlimit:10;stroke-width:2.83px;}.cls-4{fill:#232323;}.cls-5{clip-path:url(#clip-path);}.cls-6{fill:url(#linear-gradient);}.cls-7{fill:url(#linear-gradient-2);}.cls-8{fill:url(#linear-gradient-3);}.cls-9{fill:url(#linear-gradient-4);}.cls-10{fill:url(#linear-gradient-5);}.cls-11{fill:url(#linear-gradient-6);}.cls-12{fill:url(#linear-gradient-7);}.cls-13{fill:url(#linear-gradient-8);}.cls-14{fill:url(#linear-gradient-9);}.cls-15{fill:url(#linear-gradient-10);}.cls-16{fill:url(#linear-gradient-11);}.cls-17{fill:url(#linear-gradient-12);}.cls-18{fill:url(#linear-gradient-13);}.cls-19{fill:url(#linear-gradient-14);}.cls-20{fill:url(#linear-gradient-15);}.cls-21{fill:url(#linear-gradient-16);}.cls-22{fill:url(#linear-gradient-17);}.cls-23{fill:url(#linear-gradient-18);}.cls-24{fill:url(#linear-gradient-19);}.cls-25{fill:url(#linear-gradient-20);}.cls-26{fill:url(#linear-gradient-21);}.cls-27{fill:url(#linear-gradient-22);}.cls-28{fill:url(#linear-gradient-23);}.cls-29{fill:url(#linear-gradient-24);}.cls-30{fill:url(#linear-gradient-25);}.cls-31{fill:url(#linear-gradient-26);}.cls-32{fill:url(#linear-gradient-27);}.cls-33{fill:url(#linear-gradient-28);}.cls-34{fill:url(#linear-gradient-29);}.cls-35{fill:url(#linear-gradient-30);}.cls-36{fill:url(#linear-gradient-31);}.cls-37{fill:url(#linear-gradient-32);}.cls-38{fill:url(#linear-gradient-33);}.cls-39{fill:url(#linear-gradient-34);}.cls-40{fill:url(#linear-gradient-35);}.cls-41{fill:url(#linear-gradient-36);}.cls-42{fill:url(#linear-gradient-37);}.cls-43{fill:url(#linear-gradient-38);}.cls-44{fill:url(#linear-gradient-39);}.cls-45{fill:url(#linear-gradient-40);}.cls-46{fill:url(#linear-gradient-41);}.cls-47{fill:url(#linear-gradient-42);}.cls-48{fill:url(#linear-gradient-43);}.cls-49{fill:url(#linear-gradient-44);}.cls-50{fill:url(#linear-gradient-45);}.cls-51{fill:url(#linear-gradient-46);}.cls-52{fill:url(#linear-gradient-47);}.cls-53{fill:url(#linear-gradient-48);}.cls-54{fill:url(#linear-gradient-49);}</style><clipPath id="clip-path"><circle class="cls-1" cx="147.5" cy="95.72" r="91.62"/></clipPath><linearGradient id="linear-gradient" x1="100" y1="71.75" x2="102.54" y2="125.15" gradientUnits="userSpaceOnUse"><stop offset="0" stop-color="#ff5d20"/><stop offset="0.09" stop-color="#ff601c"/><stop offset="0.18" stop-color="#ff690f"/><stop offset="0.26" stop-color="#ff7400"/><stop offset="0.34" stop-color="#ff8126"/><stop offset="0.5" stop-color="#ff9c79"/><stop offset="0.56" stop-color="#ef9994"/><stop offset="0.81" stop-color="#b08dff"/><stop offset="1" stop-color="#a4dbf8"/></linearGradient><linearGradient id="linear-gradient-2" x1="204.24" y1="65.36" x2="206.78" y2="118.69" xlink:href="#linear-gradient"/><linearGradient id="linear-gradient-3" x1="105.22" y1="71.61" x2="107.76" y2="124.95" xlink:href="#linear-gradient"/><linearGradient id="linear-gradient-4" x1="199.02" y1="65.52" x2="201.56" y2="118.86" xlink:href="#linear-gradient"/><linearGradient id="linear-gradient-5" x1="209.46" y1="65.19" x2="212" y2="118.53" xlink:href="#linear-gradient"/><linearGradient id="linear-gradient-6" x1="115.85" y1="75.28" x2="117.97" y2="119.96" xlink:href="#linear-gradient"/><linearGradient id="linear-gradient-7" x1="214.68" y1="65.02" x2="217.22" y2="118.37" xlink:href="#linear-gradient"/><linearGradient id="linear-gradient-8" x1="188.58" y1="65.84" x2="191.12" y2="119.19" xlink:href="#linear-gradient"/><linearGradient id="linear-gradient-9" x1="266.88" y1="63.38" x2="269.42" y2="116.73" xlink:href="#linear-gradient"/><linearGradient id="linear-gradient-10" x1="172.92" y1="66.34" x2="175.46" y2="119.69" xlink:href="#linear-gradient"/><linearGradient id="linear-gradient-11" x1="121.1" y1="75.75" x2="123.16" y2="119.11" xlink:href="#linear-gradient"/><linearGradient id="linear-gradient-12" x1="126.28" y1="74.83" x2="128.42" y2="119.87" xlink:href="#linear-gradient"/><linearGradient id="linear-gradient-13" x1="225.12" y1="64.68" x2="227.66" y2="118.05" xlink:href="#linear-gradient"/><linearGradient id="linear-gradient-14" x1="178.14" y1="66.16" x2="180.68" y2="119.53" xlink:href="#linear-gradient"/><linearGradient id="linear-gradient-15" x1="162.71" y1="71.4" x2="164.84" y2="116.11" xlink:href="#linear-gradient"/><linearGradient id="linear-gradient-16" x1="131.81" y1="81.09" x2="133.3" y2="112.55" xlink:href="#linear-gradient"/><linearGradient id="linear-gradient-17" x1="157.49" y1="71.53" x2="159.62" y2="116.26" xlink:href="#linear-gradient"/><linearGradient id="linear-gradient-18" x1="167.7" y1="66.48" x2="170.25" y2="119.87" xlink:href="#linear-gradient"/><linearGradient id="linear-gradient-19" x1="152.6" y1="78.59" x2="154.12" y2="110.54" xlink:href="#linear-gradient"/><linearGradient id="linear-gradient-20" x1="261.66" y1="63.53" x2="264.2" y2="116.9" xlink:href="#linear-gradient"/><linearGradient id="linear-gradient-21" x1="230.34" y1="64.51" x2="232.88" y2="117.89" xlink:href="#linear-gradient"/><linearGradient id="linear-gradient-22" x1="137.01" y1="80.56" x2="138.55" y2="112.93" xlink:href="#linear-gradient"/><linearGradient id="linear-gradient-23" x1="147.42" y1="79.71" x2="148.85" y2="109.77" xlink:href="#linear-gradient"/><linearGradient id="linear-gradient-24" x1="183.36" y1="65.97" x2="185.9" y2="119.39" xlink:href="#linear-gradient"/><linearGradient id="linear-gradient-25" x1="219.9" y1="64.82" x2="222.44" y2="118.23" xlink:href="#linear-gradient"/><linearGradient id="linear-gradient-26" x1="256.44" y1="63.68" x2="258.98" y2="117.07" xlink:href="#linear-gradient"/><linearGradient id="linear-gradient-27" x1="246" y1="63.99" x2="248.54" y2="117.41" xlink:href="#linear-gradient"/><linearGradient id="linear-gradient-28" x1="272.1" y1="63.17" x2="274.64" y2="116.59" xlink:href="#linear-gradient"/><linearGradient id="linear-gradient-29" x1="94.78" y1="71.94" x2="97.32" y2="125.28" xlink:href="#linear-gradient"/><linearGradient id="linear-gradient-30" x1="193.8" y1="65.68" x2="196.34" y2="119.03" xlink:href="#linear-gradient"/><linearGradient id="linear-gradient-31" x1="84.34" y1="72.26" x2="86.88" y2="125.61" xlink:href="#linear-gradient"/><linearGradient id="linear-gradient-32" x1="73.9" y1="72.58" x2="76.44" y2="125.95" xlink:href="#linear-gradient"/><linearGradient id="linear-gradient-33" x1="89.56" y1="72.09" x2="92.1" y2="125.46" xlink:href="#linear-gradient"/><linearGradient id="linear-gradient-34" x1="110.44" y1="71.43" x2="112.98" y2="124.8" xlink:href="#linear-gradient"/><linearGradient id="linear-gradient-35" x1="68.96" y1="78.7" x2="70.85" y2="118.35" xlink:href="#linear-gradient"/><linearGradient id="linear-gradient-36" x1="79.12" y1="72.41" x2="81.66" y2="125.8" xlink:href="#linear-gradient"/><linearGradient id="linear-gradient-37" x1="42.58" y1="73.56" x2="45.12" y2="126.95" xlink:href="#linear-gradient"/><linearGradient id="linear-gradient-38" x1="63.74" y1="78.8" x2="65.63" y2="118.5" xlink:href="#linear-gradient"/><linearGradient id="linear-gradient-39" x1="47.8" y1="73.39" x2="50.34" y2="126.8" xlink:href="#linear-gradient"/><linearGradient id="linear-gradient-40" x1="58.24" y1="73.03" x2="60.78" y2="126.51" xlink:href="#linear-gradient"/><linearGradient id="linear-gradient-41" x1="37.36" y1="73.69" x2="39.9" y2="127.17" xlink:href="#linear-gradient"/><linearGradient id="linear-gradient-42" x1="53.02" y1="73.19" x2="55.56" y2="126.68" xlink:href="#linear-gradient"/><linearGradient id="linear-gradient-43" x1="141.99" y1="75.38" x2="143.81" y2="113.7" xlink:href="#linear-gradient"/><linearGradient id="linear-gradient-44" x1="235.56" y1="64.28" x2="238.1" y2="117.77" xlink:href="#linear-gradient"/><linearGradient id="linear-gradient-45" x1="240.78" y1="64.12" x2="243.32" y2="117.6" xlink:href="#linear-gradient"/><linearGradient id="linear-gradient-46" x1="251.22" y1="63.79" x2="253.76" y2="117.27" xlink:href="#linear-gradient"/><linearGradient id="linear-gradient-47" x1="277.31" y1="62.96" x2="279.86" y2="116.45" xlink:href="#linear-gradient"/><linearGradient id="linear-gradient-48" x1="282.53" y1="62.72" x2="285.08" y2="116.33" xlink:href="#linear-gradient"/><linearGradient id="linear-gradient-49" x1="52.63" y1="95.72" x2="244.08" y2="95.72" xlink:href="#linear-gradient"/></defs><g id="Layer_2" data-name="Layer 2"><g id="Layer_1-2" data-name="Layer 1"><path class="cls-2" d="M0,233H12.79c3.76,0,6.58.87,8.45,2.63s2.8,4.41,2.8,8q0,7.53-5.9,9.91l6.05,13.58H19l-5.5-12.59H4.76v12.59H0Zm12.84,17.4a6.18,6.18,0,0,0,4.73-1.71,7,7,0,0,0,1.61-5,6.84,6.84,0,0,0-1.61-4.9,6.29,6.29,0,0,0-4.78-1.69h-8v13.29Z"/><path class="cls-2" d="M30.93,264.59q-2.54-3.1-2.53-9.74,0-6.79,2.58-9.92t8.27-3.12c3.84,0,6.6,1.05,8.3,3.15s2.56,5.39,2.56,9.89-.85,7.63-2.53,9.71-4.46,3.12-8.33,3.12S32.61,266.65,30.93,264.59Zm12-1.76a4.61,4.61,0,0,0,1.85-2.73,19.5,19.5,0,0,0,.55-5.25,20.28,20.28,0,0,0-.57-5.46,4.66,4.66,0,0,0-1.88-2.75,7,7,0,0,0-3.65-.81,7.11,7.11,0,0,0-3.67.81,4.58,4.58,0,0,0-1.9,2.78,25.88,25.88,0,0,0,0,10.66,4.59,4.59,0,0,0,1.89,2.75,7,7,0,0,0,3.71.84A6.87,6.87,0,0,0,43,262.83Z"/><path class="cls-2" d="M55.76,242.36h4.56V244a18.76,18.76,0,0,1,3.86-1.68,13.33,13.33,0,0,1,3.67-.5,8.55,8.55,0,0,1,4.91,1.24,6.7,6.7,0,0,1,2.52,3.84A26.5,26.5,0,0,1,76,254v13.19H71.42V254.05a24.69,24.69,0,0,0-.37-4.83,4.07,4.07,0,0,0-1.39-2.48,4.85,4.85,0,0,0-3-.77,14.88,14.88,0,0,0-5.5,1.14l-.84.4v19.63H55.76Z"/><path class="cls-2" d="M94.17,233H107c3.77,0,6.59.87,8.45,2.63s2.8,4.41,2.8,8q0,7.53-5.89,9.91l6,13.58h-5.2l-5.5-12.59H98.92v12.59H94.17ZM107,250.44a6.22,6.22,0,0,0,4.74-1.71,7,7,0,0,0,1.61-5,6.84,6.84,0,0,0-1.61-4.9,6.31,6.31,0,0,0-4.79-1.69h-8v13.29Z"/><path class="cls-2" d="M124.25,265.7a8.1,8.1,0,0,1-1.83-5.7c0-2.44.62-4.24,1.88-5.38s3.25-1.84,6-2.1l7-.65v-1.93a4.41,4.41,0,0,0-.94-3.15,3.71,3.71,0,0,0-2.77-1,89,89,0,0,0-9.62.59l-.15-3.37a43.13,43.13,0,0,1,9.77-1.24c2.9,0,5,.65,6.34,2s2,3.36,2,6.17v11.94a2.29,2.29,0,0,0,.67,1.52,3.55,3.55,0,0,0,1.81.71l-.15,3.57a11.85,11.85,0,0,1-3.61-.47,7.22,7.22,0,0,1-2.63-1.46,20,20,0,0,1-8.43,1.93A6.94,6.94,0,0,1,124.25,265.7Zm12-2.82,1-.35v-7.29l-6.44.6A4.42,4.42,0,0,0,128,257a4,4,0,0,0-.92,2.85q0,4,3.33,4A18.55,18.55,0,0,0,136.29,262.88Z"/><path class="cls-2" d="M149,242.36h4.56V244a19.06,19.06,0,0,1,3.57-1.63,11,11,0,0,1,3.47-.55,10.06,10.06,0,0,1,3.57.62,5.56,5.56,0,0,1,2.57,1.86,21.57,21.57,0,0,1,4.34-1.78,16.56,16.56,0,0,1,4.78-.7,8.19,8.19,0,0,1,4.81,1.24,6.86,6.86,0,0,1,2.48,3.87,27,27,0,0,1,.74,7v13.19h-4.61V254.05a23.93,23.93,0,0,0-.37-4.83,4.18,4.18,0,0,0-1.34-2.48,4.51,4.51,0,0,0-2.85-.77,13.24,13.24,0,0,0-2.87.33,13.84,13.84,0,0,0-2.63.81l-.89.4a30,30,0,0,1,.55,6.74v12.89H164.2V254.35a28.13,28.13,0,0,0-.35-5.08,4.17,4.17,0,0,0-1.31-2.53,4.54,4.54,0,0,0-2.85-.77,12.34,12.34,0,0,0-2.85.35,14.29,14.29,0,0,0-2.46.79l-.79.4v19.63H149Z"/><path class="cls-2" d="M192,267.24l-1.54-.15V231.85h4.61v11.6a20.62,20.62,0,0,1,3.5-1.24,14.29,14.29,0,0,1,3.49-.4,9.37,9.37,0,0,1,5.23,1.29,7.47,7.47,0,0,1,2.88,4.09,24.73,24.73,0,0,1,.91,7.46,21.8,21.8,0,0,1-1.11,7.8,7.11,7.11,0,0,1-3.67,4,17.08,17.08,0,0,1-7.11,1.19A70.83,70.83,0,0,1,192,267.24Zm11.67-4.59a4.64,4.64,0,0,0,2.11-2.77,18.36,18.36,0,0,0,.59-5.28,19.75,19.75,0,0,0-.52-5.13,4.67,4.67,0,0,0-1.68-2.68A5.53,5.53,0,0,0,201,246a18.53,18.53,0,0,0-5.9,1.19v16.11c2.15.17,3.57.25,4.27.25A8.76,8.76,0,0,0,203.67,262.65Z"/><path class="cls-2" d="M218.12,264.73c-1.62-2-2.43-5.08-2.43-9.34q0-6.88,2.6-10.23c1.74-2.23,4.42-3.35,8.06-3.35q10.11,0,10.11,11.5l-.3,3.37H220.35a11.28,11.28,0,0,0,.69,4.14,4,4,0,0,0,2.09,2.1,10.16,10.16,0,0,0,4.06.65c1,0,2.18,0,3.47-.08s2.44-.12,3.47-.22l1.39-.15.1,3.57a58.4,58.4,0,0,1-9.37,1Q220.55,267.68,218.12,264.73Zm13.73-11.67q0-4-1.26-5.7c-.85-1.12-2.26-1.68-4.24-1.68a5.53,5.53,0,0,0-4.56,1.76q-1.44,1.76-1.49,5.62Z"/><path class="cls-2" d="M242.26,231.85h4.61v35.29h-4.61Z"/><path class="cls-2" d="M254.3,231.85h4.61v35.29H254.3Z"/><path class="cls-2" d="M23.36,294.87h4.38a5.87,5.87,0,0,1,3.62,1,3.53,3.53,0,0,1,1.32,3,3.57,3.57,0,0,1-1.32,3,5.87,5.87,0,0,1-3.62,1H24.89v7H23.36Zm1.53,6.65h2.46a6.12,6.12,0,0,0,1.73-.22,3.19,3.19,0,0,0,1.14-.56,2.09,2.09,0,0,0,.62-.83,2.83,2.83,0,0,0,0-2,2.24,2.24,0,0,0-.62-.83,2.9,2.9,0,0,0-1.14-.57,6.58,6.58,0,0,0-1.73-.2H24.89Z"/><path class="cls-2" d="M37.08,305.31a4.19,4.19,0,0,0,.36,1.41,3.93,3.93,0,0,0,.78,1.13,3.81,3.81,0,0,0,1.13.76,3.79,3.79,0,0,0,3.32-.25,3.86,3.86,0,0,0,1.24-1.2l1.09.89a5.47,5.47,0,0,1-2,1.62,5.55,5.55,0,0,1-2.3.49,5.31,5.31,0,0,1-2-.4,4.68,4.68,0,0,1-1.62-1.09A5.23,5.23,0,0,1,36,307a5.43,5.43,0,0,1-.39-2.08,5.66,5.66,0,0,1,.38-2.08A5.14,5.14,0,0,1,37,301.2a5.08,5.08,0,0,1,1.6-1.1,5,5,0,0,1,2-.39,5,5,0,0,1,2,.4A4.51,4.51,0,0,1,45,302.76a5.77,5.77,0,0,1,.32,1.92v.63Zm6.75-1.14A3,3,0,0,0,40.6,301a3.3,3.3,0,0,0-1.31.27,3.69,3.69,0,0,0-1.12.71,3.58,3.58,0,0,0-.76,1,2.64,2.64,0,0,0-.29,1.19Z"/><path class="cls-2" d="M49.11,303.06c0-.43,0-.88,0-1.33s0-1,0-1.76h1.38v1.84h0a3,3,0,0,1,.43-.77,3.22,3.22,0,0,1,.66-.67,3.34,3.34,0,0,1,.92-.48,3.57,3.57,0,0,1,1.18-.18,3.65,3.65,0,0,1,1,.13l-.28,1.38a2.34,2.34,0,0,0-.81-.11,2.87,2.87,0,0,0-1.38.31,2.93,2.93,0,0,0-1,.79,3.1,3.1,0,0,0-.56,1,3.48,3.48,0,0,0-.18,1.07v5.6H49.11Z"/><path class="cls-2" d="M62.34,302.32a2.59,2.59,0,0,0-.85-1A2.18,2.18,0,0,0,60.2,301a3.12,3.12,0,0,0-.74.09,2.46,2.46,0,0,0-.67.26,1.72,1.72,0,0,0-.47.46,1.23,1.23,0,0,0-.18.68,1.13,1.13,0,0,0,.48,1,4.82,4.82,0,0,0,1.47.55l1.42.34a3.39,3.39,0,0,1,1.73.95,2.43,2.43,0,0,1,.69,1.77,2.78,2.78,0,0,1-.33,1.39,2.74,2.74,0,0,1-.87.95,3.78,3.78,0,0,1-1.24.55,6.2,6.2,0,0,1-1.42.17,5.25,5.25,0,0,1-2.14-.44,3.92,3.92,0,0,1-1.68-1.5l1.21-.82a3.35,3.35,0,0,0,1.07,1.08,2.83,2.83,0,0,0,1.54.4,4.17,4.17,0,0,0,.85-.09,2.8,2.8,0,0,0,.75-.3,1.65,1.65,0,0,0,.53-.52,1.3,1.3,0,0,0,.2-.74,1.16,1.16,0,0,0-.55-1.08,4.87,4.87,0,0,0-1.34-.52l-1.36-.32c-.16,0-.39-.11-.68-.21a3.28,3.28,0,0,1-.85-.44,2.7,2.7,0,0,1-.72-.78,2.27,2.27,0,0,1-.29-1.18,2.7,2.7,0,0,1,.31-1.33,2.58,2.58,0,0,1,.82-.94,3.86,3.86,0,0,1,1.18-.54,5.13,5.13,0,0,1,1.36-.18,4.76,4.76,0,0,1,1.93.4,2.81,2.81,0,0,1,1.38,1.38Z"/><path class="cls-2" d="M77.22,304.93a5.43,5.43,0,0,1-.39,2.08,5,5,0,0,1-1.1,1.66,4.84,4.84,0,0,1-1.66,1.09,5.84,5.84,0,0,1-4.25,0,4.84,4.84,0,0,1-1.66-1.09,5,5,0,0,1-1.1-1.66,5.74,5.74,0,0,1,0-4.16,4.92,4.92,0,0,1,1.1-1.65,5,5,0,0,1,1.66-1.1,6,6,0,0,1,4.25,0,5,5,0,0,1,1.66,1.1,4.92,4.92,0,0,1,1.1,1.65A5.46,5.46,0,0,1,77.22,304.93Zm-1.53,0a4.63,4.63,0,0,0-.26-1.55,3.68,3.68,0,0,0-.76-1.25,3.58,3.58,0,0,0-1.17-.84,4.11,4.11,0,0,0-3.13,0,3.53,3.53,0,0,0-1.16.84,3.82,3.82,0,0,0-.75,1.25,4.75,4.75,0,0,0,0,3.1,3.82,3.82,0,0,0,.75,1.25,3.27,3.27,0,0,0,1.16.84,4.11,4.11,0,0,0,3.13,0,3.31,3.31,0,0,0,1.17-.84,3.68,3.68,0,0,0,.76-1.25A4.63,4.63,0,0,0,75.69,304.93Z"/><path class="cls-2" d="M82.17,300c0,.26,0,.53,0,.79s0,.53,0,.8h0a3.53,3.53,0,0,1,.6-.75,4.19,4.19,0,0,1,.8-.58,4.6,4.6,0,0,1,1-.38,3.76,3.76,0,0,1,1-.14,3.63,3.63,0,0,1,2.82,1,4.13,4.13,0,0,1,.91,2.88v6.3h-1.4v-5.5a4.65,4.65,0,0,0-.57-2.53,2.34,2.34,0,0,0-2.12-.89,5,5,0,0,0-.6.09,2.54,2.54,0,0,0-1,.47,3.26,3.26,0,0,0-1,1.14,4.34,4.34,0,0,0-.43,2.13v5.09h-1.4v-7.75q0-.4,0-1c0-.41,0-.8-.08-1.16Z"/><path class="cls-2" d="M100.06,303.81v-.26A2.26,2.26,0,0,0,97.52,301a4.37,4.37,0,0,0-3,1.17l-.85-1a5.61,5.61,0,0,1,4.2-1.44,4.59,4.59,0,0,1,1.39.21,3.07,3.07,0,0,1,1.16.65,3.26,3.26,0,0,1,.79,1.09,4,4,0,0,1,.29,1.57v4.44q0,.57.06,1.2c0,.42.07.76.11,1h-1.35a5.86,5.86,0,0,1-.1-.79c0-.28,0-.55,0-.82h0a3.9,3.9,0,0,1-1.46,1.43,4.41,4.41,0,0,1-2.05.44,4.49,4.49,0,0,1-1.27-.19,3.11,3.11,0,0,1-1.09-.55,2.71,2.71,0,0,1-.77-.91,2.66,2.66,0,0,1-.28-1.26,2.7,2.7,0,0,1,.62-1.9,3.78,3.78,0,0,1,1.57-1,7.72,7.72,0,0,1,2-.43c.71-.05,1.37-.08,2-.08ZM99.34,305c-.35,0-.79,0-1.33.06a7.42,7.42,0,0,0-1.52.25,3.4,3.4,0,0,0-1.26.63,1.44,1.44,0,0,0-.52,1.17,1.66,1.66,0,0,0,.75,1.41,2.3,2.3,0,0,0,.75.32,4,4,0,0,0,.84.09,3.22,3.22,0,0,0,1.33-.25,2.73,2.73,0,0,0,.94-.69,2.81,2.81,0,0,0,.56-1,4.23,4.23,0,0,0,.18-1.24V305Z"/><path class="cls-2" d="M107.49,309.9h-1.4v-16h1.4Z"/><path class="cls-2" d="M118.89,294.87h5a14.14,14.14,0,0,1,3.43.4,7.84,7.84,0,0,1,2.83,1.31,6.31,6.31,0,0,1,1.92,2.34,7.85,7.85,0,0,1,.72,3.51,7.25,7.25,0,0,1-.69,3.21,7,7,0,0,1-1.86,2.34,8.13,8.13,0,0,1-2.7,1.43,10.34,10.34,0,0,1-3.2.49h-5.42Zm3.31,12h1.72a9.06,9.06,0,0,0,2.14-.23,4.48,4.48,0,0,0,1.71-.78,3.63,3.63,0,0,0,1.13-1.42,4.93,4.93,0,0,0,.42-2.15,4.12,4.12,0,0,0-.42-1.92,3.67,3.67,0,0,0-1.11-1.35,5.07,5.07,0,0,0-1.65-.8,7.57,7.57,0,0,0-2-.26h-2Z"/><path class="cls-2" d="M143.84,304.87a11.24,11.24,0,0,1-.18,2,4.56,4.56,0,0,1-.69,1.73,3.67,3.67,0,0,1-1.46,1.21,5.77,5.77,0,0,1-2.47.45,5.19,5.19,0,0,1-3-.85,4,4,0,0,1-1.59-2.65l3-.74a1.52,1.52,0,0,0,1.48,1.31,1.31,1.31,0,0,0,.9-.28,1.69,1.69,0,0,0,.46-.72,3.34,3.34,0,0,0,.18-.92c0-.33,0-.64,0-.92v-9.64h3.32Z"/><path class="cls-2" d="M168,307.52a5.92,5.92,0,0,1-.94,1.09,6.17,6.17,0,0,1-1.28.88,8.07,8.07,0,0,1-1.56.58,7.36,7.36,0,0,1-1.78.21,8.16,8.16,0,0,1-3.11-.59,7.53,7.53,0,0,1-4.13-4.14,8.78,8.78,0,0,1,0-6.33,7.53,7.53,0,0,1,4.13-4.14,8.16,8.16,0,0,1,3.11-.59,7.5,7.5,0,0,1,2.8.55,5.61,5.61,0,0,1,2.4,1.83l-1.33,1a3.77,3.77,0,0,0-.64-.72,5.18,5.18,0,0,0-.92-.64,5.8,5.8,0,0,0-1.12-.44,4.44,4.44,0,0,0-1.19-.17,6.18,6.18,0,0,0-2.59.53,5.91,5.91,0,0,0-1.94,1.42,6.33,6.33,0,0,0-1.22,2.07,7.34,7.34,0,0,0,0,4.95,6.33,6.33,0,0,0,1.22,2.07,5.91,5.91,0,0,0,1.94,1.42,6.18,6.18,0,0,0,2.59.53,6.64,6.64,0,0,0,1.18-.1,5.5,5.5,0,0,0,1.15-.37,4.38,4.38,0,0,0,1.06-.69,5,5,0,0,0,.92-1.09Z"/><path class="cls-2" d="M181.14,304.93a5.25,5.25,0,0,1-.4,2.08,4.94,4.94,0,0,1-1.09,1.66,4.88,4.88,0,0,1-1.67,1.09,5.82,5.82,0,0,1-4.24,0,4.88,4.88,0,0,1-1.67-1.09A4.94,4.94,0,0,1,171,307a5.74,5.74,0,0,1,0-4.16,4.9,4.9,0,0,1,1.09-1.65,5.06,5.06,0,0,1,1.67-1.1,6,6,0,0,1,4.24,0,5.06,5.06,0,0,1,1.67,1.1,4.9,4.9,0,0,1,1.09,1.65A5.28,5.28,0,0,1,181.14,304.93Zm-1.53,0a4.39,4.39,0,0,0-.27-1.55,3.66,3.66,0,0,0-.75-1.25,3.73,3.73,0,0,0-1.18-.84,4.08,4.08,0,0,0-3.12,0,3.58,3.58,0,0,0-1.17.84,3.8,3.8,0,0,0-.74,1.25,4.58,4.58,0,0,0,0,3.1,3.8,3.8,0,0,0,.74,1.25,3.31,3.31,0,0,0,1.17.84,4.08,4.08,0,0,0,3.12,0,3.44,3.44,0,0,0,1.18-.84,3.66,3.66,0,0,0,.75-1.25A4.39,4.39,0,0,0,179.61,304.93Z"/><path class="cls-2" d="M191.92,309.9a7.16,7.16,0,0,1,0-.8c0-.26,0-.52,0-.79h-.05a3,3,0,0,1-.59.74,4,4,0,0,1-.81.59,4.87,4.87,0,0,1-.94.38,3.76,3.76,0,0,1-1,.14,3.63,3.63,0,0,1-2.82-1,4.15,4.15,0,0,1-.92-2.88V300h1.41v5.49a8,8,0,0,0,.12,1.47,2.8,2.8,0,0,0,.44,1.07,1.88,1.88,0,0,0,.83.66,3.27,3.27,0,0,0,1.3.22l.6-.08a2.82,2.82,0,0,0,1-.47,3.4,3.4,0,0,0,1-1.15,4.42,4.42,0,0,0,.43-2.12V300h1.4v7.74q0,.41,0,1c0,.41.05.8.07,1.17Z"/><path class="cls-2" d="M197.76,303.06c0-.43,0-.88,0-1.33s0-1-.06-1.76h1.38v1.84h0a2.91,2.91,0,0,1,.42-.77,3.31,3.31,0,0,1,1.58-1.15,4.08,4.08,0,0,1,2.22-.05l-.28,1.38a2.32,2.32,0,0,0-.8-.11,2.81,2.81,0,0,0-1.38.31,3.08,3.08,0,0,0-1,.79,3.3,3.3,0,0,0-.56,1,3.48,3.48,0,0,0-.18,1.07v5.6h-1.4Z"/><path class="cls-2" d="M211,302.32a2.51,2.51,0,0,0-.85-1,2.16,2.16,0,0,0-1.29-.37,3,3,0,0,0-.73.09,2.34,2.34,0,0,0-.67.26,1.63,1.63,0,0,0-.48.46,1.23,1.23,0,0,0-.18.68,1.11,1.11,0,0,0,.49,1,4.65,4.65,0,0,0,1.46.55l1.43.34a3.39,3.39,0,0,1,1.73.95,2.43,2.43,0,0,1,.69,1.77,2.78,2.78,0,0,1-.33,1.39,2.74,2.74,0,0,1-.87.95,3.84,3.84,0,0,1-1.25.55,6.13,6.13,0,0,1-1.42.17,5.24,5.24,0,0,1-2.13-.44,3.94,3.94,0,0,1-1.69-1.5l1.21-.82a3.35,3.35,0,0,0,1.07,1.08,2.85,2.85,0,0,0,1.54.4,4,4,0,0,0,.85-.09,2.67,2.67,0,0,0,.75-.3,1.79,1.79,0,0,0,.54-.52,1.39,1.39,0,0,0,.2-.74,1.17,1.17,0,0,0-.55-1.08,5,5,0,0,0-1.34-.52l-1.36-.32q-.26-.06-.69-.21a3.63,3.63,0,0,1-.85-.44,2.67,2.67,0,0,1-.71-.78,2.18,2.18,0,0,1-.3-1.18,2.7,2.7,0,0,1,.31-1.33,2.6,2.6,0,0,1,.83-.94,3.75,3.75,0,0,1,1.18-.54,5.05,5.05,0,0,1,1.35-.18,4.81,4.81,0,0,1,1.94.4,2.89,2.89,0,0,1,1.38,1.38Z"/><path class="cls-2" d="M216.8,305.31a4.19,4.19,0,0,0,.36,1.41,3.77,3.77,0,0,0,1.91,1.89,3.54,3.54,0,0,0,1.38.27,3.49,3.49,0,0,0,1.94-.52,4,4,0,0,0,1.25-1.2l1.08.89a5.53,5.53,0,0,1-2,1.62,5.63,5.63,0,0,1-2.31.49,5.35,5.35,0,0,1-2-.4,4.68,4.68,0,0,1-1.62-1.09,5.38,5.38,0,0,1-1.47-3.74,5.46,5.46,0,0,1,.39-2.08,5,5,0,0,1,1.06-1.65,4.92,4.92,0,0,1,1.59-1.1,5.24,5.24,0,0,1,4,0,4.38,4.38,0,0,1,1.5,1.08,4.55,4.55,0,0,1,.92,1.57,5.77,5.77,0,0,1,.32,1.92v.63Zm6.75-1.14a3,3,0,0,0-3.23-3.19,3.3,3.3,0,0,0-1.31.27,3.69,3.69,0,0,0-1.12.71,3.77,3.77,0,0,0-.76,1,2.64,2.64,0,0,0-.29,1.19Z"/><path class="cls-2" d="M234,302.32a2.51,2.51,0,0,0-.85-1,2.16,2.16,0,0,0-1.29-.37,3,3,0,0,0-.73.09,2.34,2.34,0,0,0-.67.26,1.63,1.63,0,0,0-.48.46,1.23,1.23,0,0,0-.18.68,1.11,1.11,0,0,0,.49,1,4.65,4.65,0,0,0,1.46.55l1.43.34a3.39,3.39,0,0,1,1.73.95,2.43,2.43,0,0,1,.69,1.77,2.78,2.78,0,0,1-.33,1.39,2.74,2.74,0,0,1-.87.95,3.84,3.84,0,0,1-1.25.55,6.13,6.13,0,0,1-1.42.17,5.24,5.24,0,0,1-2.13-.44,3.94,3.94,0,0,1-1.69-1.5l1.21-.82a3.35,3.35,0,0,0,1.07,1.08,2.85,2.85,0,0,0,1.54.4,4.09,4.09,0,0,0,.85-.09,2.8,2.8,0,0,0,.75-.3,1.79,1.79,0,0,0,.54-.52,1.39,1.39,0,0,0,.2-.74,1.17,1.17,0,0,0-.55-1.08,5,5,0,0,0-1.34-.52l-1.36-.32q-.26-.06-.69-.21a3.63,3.63,0,0,1-.85-.44,2.67,2.67,0,0,1-.71-.78,2.18,2.18,0,0,1-.3-1.18,2.7,2.7,0,0,1,.31-1.33,2.52,2.52,0,0,1,.83-.94,3.75,3.75,0,0,1,1.18-.54,5.05,5.05,0,0,1,1.35-.18,4.81,4.81,0,0,1,1.94.4,2.89,2.89,0,0,1,1.38,1.38Z"/><circle class="cls-3" cx="108.71" cy="95.72" r="93.88"/><circle class="cls-4" cx="147.5" cy="95.72" r="93.88"/><g class="cls-5"><rect class="cls-6" x="99.86" y="84.02" width="2.58" height="23.77"/><rect class="cls-7" x="204.41" y="53.91" width="2.58" height="84"/><rect class="cls-8" x="105.08" y="53" width="2.58" height="85.8"/><rect class="cls-9" x="199.18" y="65.05" width="2.58" height="61.7"/><rect class="cls-10" x="209.63" y="60.38" width="2.58" height="71.04"/><rect class="cls-11" x="115.54" y="73.16" width="2.58" height="45.48"/><rect class="cls-12" x="214.86" y="68.74" width="2.58" height="54.32"/><rect class="cls-13" x="188.72" y="68.74" width="2.58" height="54.32"/><rect class="cls-14" x="267.14" y="68.74" width="2.58" height="54.32"/><rect class="cls-15" x="173.04" y="68.74" width="2.58" height="54.32"/><rect class="cls-16" x="120.77" y="77.24" width="2.58" height="37.33"/><rect class="cls-17" x="125.99" y="80.04" width="2.58" height="31.72"/><rect class="cls-18" x="225.32" y="77.1" width="2.58" height="37.61"/><rect class="cls-19" x="178.27" y="77.1" width="2.58" height="37.61"/><rect class="cls-20" x="162.59" y="80.16" width="2.58" height="31.48"/><rect class="cls-21" x="131.22" y="87.31" width="2.58" height="17.19"/><rect class="cls-22" x="157.36" y="83.66" width="2.58" height="24.49"/><rect class="cls-23" x="167.81" y="81.28" width="2.58" height="29.25"/><rect class="cls-24" x="152.13" y="87.17" width="2.58" height="17.46"/><rect class="cls-25" x="261.91" y="76.45" width="2.58" height="38.9"/><rect class="cls-26" x="230.54" y="81.28" width="2.58" height="29.25"/><rect class="cls-27" x="136.45" y="89.6" width="2.58" height="12.61"/><rect class="cls-28" x="146.9" y="90.05" width="2.58" height="11.7"/><rect class="cls-29" x="183.5" y="85.46" width="2.58" height="20.89"/><rect class="cls-30" x="220.09" y="85.46" width="2.58" height="20.89"/><rect class="cls-31" x="256.68" y="82.15" width="2.58" height="27.5"/><rect class="cls-32" x="246.23" y="85.46" width="2.58" height="20.89"/><rect class="cls-33" x="272.37" y="85.46" width="2.58" height="20.89"/><rect class="cls-34" x="94.63" y="60.38" width="2.58" height="71.04"/><rect class="cls-35" x="193.95" y="60.38" width="2.58" height="71.04"/><rect class="cls-36" x="84.17" y="68.74" width="2.58" height="54.32"/><rect class="cls-37" x="73.72" y="77.1" width="2.58" height="37.61"/><rect class="cls-38" x="89.4" y="77.1" width="2.58" height="37.61"/><rect class="cls-39" x="110.31" y="77.1" width="2.58" height="37.61"/><rect class="cls-40" x="68.49" y="85.06" width="2.58" height="21.69"/><rect class="cls-41" x="78.94" y="81.28" width="2.58" height="29.25"/><rect class="cls-42" x="42.35" y="81.28" width="2.58" height="29.25"/><rect class="cls-43" x="63.26" y="88.16" width="2.58" height="15.5"/><rect class="cls-44" x="47.58" y="85.46" width="2.58" height="20.89"/><rect class="cls-45" x="58.04" y="89.63" width="2.58" height="12.54"/><rect class="cls-46" x="37.12" y="89.63" width="2.58" height="12.54"/><rect class="cls-47" x="52.81" y="89.63" width="2.58" height="12.54"/><rect class="cls-48" x="141.68" y="91.43" width="2.58" height="8.95"/><rect class="cls-49" x="235.77" y="89.63" width="2.58" height="12.54"/><rect class="cls-50" x="241" y="89.63" width="2.58" height="12.54"/><rect class="cls-51" x="251.45" y="89.63" width="2.58" height="12.54"/><rect class="cls-52" x="277.59" y="89.63" width="2.58" height="12.54"/><rect class="cls-53" x="282.82" y="92.32" width="2.58" height="7.17"/></g><path class="cls-54" d="M148.36,191.45a95.73,95.73,0,1,1,95.72-95.73A95.83,95.83,0,0,1,148.36,191.45Zm0-187.77a92,92,0,1,0,92,92A92.15,92.15,0,0,0,148.36,3.68Z"/></g></g></svg>