<svg xmlns="http://www.w3.org/2000/svg" xmlns:xlink="http://www.w3.org/1999/xlink" viewBox="0 0 868.07 313.45"><defs><style>.cls-1,.cls-3{fill:none;}.cls-2{fill:#fff;}.cls-3{stroke:#fff;stroke-miterlimit:10;stroke-width:4.64px;}.cls-4{fill:#232323;}.cls-5{clip-path:url(#clip-path);}.cls-6{fill:url(#linear-gradient);}.cls-7{fill:url(#linear-gradient-2);}.cls-8{fill:url(#linear-gradient-3);}.cls-9{fill:url(#linear-gradient-4);}.cls-10{fill:url(#linear-gradient-5);}.cls-11{fill:url(#linear-gradient-6);}.cls-12{fill:url(#linear-gradient-7);}.cls-13{fill:url(#linear-gradient-8);}.cls-14{fill:url(#linear-gradient-9);}.cls-15{fill:url(#linear-gradient-10);}.cls-16{fill:url(#linear-gradient-11);}.cls-17{fill:url(#linear-gradient-12);}.cls-18{fill:url(#linear-gradient-13);}.cls-19{fill:url(#linear-gradient-14);}.cls-20{fill:url(#linear-gradient-15);}.cls-21{fill:url(#linear-gradient-16);}.cls-22{fill:url(#linear-gradient-17);}.cls-23{fill:url(#linear-gradient-18);}.cls-24{fill:url(#linear-gradient-19);}.cls-25{fill:url(#linear-gradient-20);}.cls-26{fill:url(#linear-gradient-21);}.cls-27{fill:url(#linear-gradient-22);}.cls-28{fill:url(#linear-gradient-23);}.cls-29{fill:url(#linear-gradient-24);}.cls-30{fill:url(#linear-gradient-25);}.cls-31{fill:url(#linear-gradient-26);}.cls-32{fill:url(#linear-gradient-27);}.cls-33{fill:url(#linear-gradient-28);}.cls-34{fill:url(#linear-gradient-29);}.cls-35{fill:url(#linear-gradient-30);}.cls-36{fill:url(#linear-gradient-31);}.cls-37{fill:url(#linear-gradient-32);}.cls-38{fill:url(#linear-gradient-33);}.cls-39{fill:url(#linear-gradient-34);}.cls-40{fill:url(#linear-gradient-35);}.cls-41{fill:url(#linear-gradient-36);}.cls-42{fill:url(#linear-gradient-37);}.cls-43{fill:url(#linear-gradient-38);}.cls-44{fill:url(#linear-gradient-39);}.cls-45{fill:url(#linear-gradient-40);}.cls-46{fill:url(#linear-gradient-41);}.cls-47{fill:url(#linear-gradient-42);}.cls-48{fill:url(#linear-gradient-43);}.cls-49{fill:url(#linear-gradient-44);}.cls-50{fill:url(#linear-gradient-45);}.cls-51{fill:url(#linear-gradient-46);}.cls-52{fill:url(#linear-gradient-47);}.cls-53{fill:url(#linear-gradient-48);}.cls-54{fill:url(#linear-gradient-49);}</style><clipPath id="clip-path"><circle class="cls-1" cx="219.54" cy="156.73" r="150.01"/></clipPath><linearGradient id="linear-gradient" x1="141.76" y1="117.47" x2="145.93" y2="204.9" gradientUnits="userSpaceOnUse"><stop offset="0" stop-color="#ff5d20"/><stop offset="0.09" stop-color="#ff601c"/><stop offset="0.18" stop-color="#ff690f"/><stop offset="0.26" stop-color="#ff7400"/><stop offset="0.34" stop-color="#ff8126"/><stop offset="0.5" stop-color="#ff9c79"/><stop offset="0.56" stop-color="#ef9994"/><stop offset="0.81" stop-color="#b08dff"/><stop offset="1" stop-color="#a4dbf8"/></linearGradient><linearGradient id="linear-gradient-2" x1="312.44" y1="107.01" x2="316.6" y2="194.33" xlink:href="#linear-gradient"/><linearGradient id="linear-gradient-3" x1="150.31" y1="117.25" x2="154.47" y2="204.57" xlink:href="#linear-gradient"/><linearGradient id="linear-gradient-4" x1="303.9" y1="107.27" x2="308.05" y2="194.61" xlink:href="#linear-gradient"/><linearGradient id="linear-gradient-5" x1="320.99" y1="106.73" x2="325.15" y2="194.07" xlink:href="#linear-gradient"/><linearGradient id="linear-gradient-6" x1="167.71" y1="123.25" x2="171.2" y2="196.4" xlink:href="#linear-gradient"/><linearGradient id="linear-gradient-7" x1="329.53" y1="106.46" x2="333.69" y2="193.81" xlink:href="#linear-gradient"/><linearGradient id="linear-gradient-8" x1="286.8" y1="107.8" x2="290.96" y2="195.15" xlink:href="#linear-gradient"/><linearGradient id="linear-gradient-9" x1="414.99" y1="103.76" x2="419.15" y2="191.11" xlink:href="#linear-gradient"/><linearGradient id="linear-gradient-10" x1="261.17" y1="108.61" x2="265.32" y2="195.96" xlink:href="#linear-gradient"/><linearGradient id="linear-gradient-11" x1="176.31" y1="124.03" x2="179.69" y2="195.02" xlink:href="#linear-gradient"/><linearGradient id="linear-gradient-12" x1="184.8" y1="122.52" x2="188.31" y2="196.26" xlink:href="#linear-gradient"/><linearGradient id="linear-gradient-13" x1="346.62" y1="105.9" x2="350.79" y2="193.28" xlink:href="#linear-gradient"/><linearGradient id="linear-gradient-14" x1="269.71" y1="108.33" x2="273.87" y2="195.7" xlink:href="#linear-gradient"/><linearGradient id="linear-gradient-15" x1="244.44" y1="116.91" x2="247.93" y2="190.1" xlink:href="#linear-gradient"/><linearGradient id="linear-gradient-16" x1="193.84" y1="132.76" x2="196.3" y2="184.27" xlink:href="#linear-gradient"/><linearGradient id="linear-gradient-17" x1="235.89" y1="117.11" x2="239.38" y2="190.35" xlink:href="#linear-gradient"/><linearGradient id="linear-gradient-18" x1="252.62" y1="108.85" x2="256.78" y2="196.26" xlink:href="#linear-gradient"/><linearGradient id="linear-gradient-19" x1="227.89" y1="128.67" x2="230.38" y2="180.99" xlink:href="#linear-gradient"/><linearGradient id="linear-gradient-20" x1="406.45" y1="104.02" x2="410.61" y2="191.39" xlink:href="#linear-gradient"/><linearGradient id="linear-gradient-21" x1="355.17" y1="105.61" x2="359.33" y2="193.02" xlink:href="#linear-gradient"/><linearGradient id="linear-gradient-22" x1="202.36" y1="131.9" x2="204.89" y2="184.9" xlink:href="#linear-gradient"/><linearGradient id="linear-gradient-23" x1="219.41" y1="130.5" x2="221.76" y2="179.72" xlink:href="#linear-gradient"/><linearGradient id="linear-gradient-24" x1="278.25" y1="108.01" x2="282.42" y2="195.47" xlink:href="#linear-gradient"/><linearGradient id="linear-gradient-25" x1="338.08" y1="106.12" x2="342.24" y2="193.58" xlink:href="#linear-gradient"/><linearGradient id="linear-gradient-26" x1="397.9" y1="104.26" x2="402.06" y2="191.68" xlink:href="#linear-gradient"/><linearGradient id="linear-gradient-27" x1="380.81" y1="104.78" x2="384.97" y2="192.23" xlink:href="#linear-gradient"/><linearGradient id="linear-gradient-28" x1="423.54" y1="103.43" x2="427.7" y2="190.88" xlink:href="#linear-gradient"/><linearGradient id="linear-gradient-29" x1="133.22" y1="117.78" x2="137.38" y2="205.11" xlink:href="#linear-gradient"/><linearGradient id="linear-gradient-30" x1="295.35" y1="107.54" x2="299.51" y2="194.88" xlink:href="#linear-gradient"/><linearGradient id="linear-gradient-31" x1="116.13" y1="118.31" x2="120.29" y2="205.66" xlink:href="#linear-gradient"/><linearGradient id="linear-gradient-32" x1="99.03" y1="118.84" x2="103.19" y2="206.22" xlink:href="#linear-gradient"/><linearGradient id="linear-gradient-33" x1="124.67" y1="118.03" x2="128.83" y2="205.41" xlink:href="#linear-gradient"/><linearGradient id="linear-gradient-34" x1="158.86" y1="116.95" x2="163.02" y2="204.33" xlink:href="#linear-gradient"/><linearGradient id="linear-gradient-35" x1="90.95" y1="128.85" x2="94.04" y2="193.77" xlink:href="#linear-gradient"/><linearGradient id="linear-gradient-36" x1="107.58" y1="118.56" x2="111.74" y2="205.96" xlink:href="#linear-gradient"/><linearGradient id="linear-gradient-37" x1="47.76" y1="120.44" x2="51.92" y2="207.85" xlink:href="#linear-gradient"/><linearGradient id="linear-gradient-38" x1="82.4" y1="129.02" x2="85.5" y2="194.01" xlink:href="#linear-gradient"/><linearGradient id="linear-gradient-39" x1="56.3" y1="120.15" x2="60.47" y2="207.61" xlink:href="#linear-gradient"/><linearGradient id="linear-gradient-40" x1="73.39" y1="119.57" x2="77.56" y2="207.14" xlink:href="#linear-gradient"/><linearGradient id="linear-gradient-41" x1="39.21" y1="120.65" x2="43.38" y2="208.22" xlink:href="#linear-gradient"/><linearGradient id="linear-gradient-42" x1="64.85" y1="119.84" x2="69.02" y2="207.41" xlink:href="#linear-gradient"/><linearGradient id="linear-gradient-43" x1="210.52" y1="123.41" x2="213.5" y2="186.15" xlink:href="#linear-gradient"/><linearGradient id="linear-gradient-44" x1="363.71" y1="105.25" x2="367.88" y2="192.82" xlink:href="#linear-gradient"/><linearGradient id="linear-gradient-45" x1="372.26" y1="104.98" x2="376.43" y2="192.55" xlink:href="#linear-gradient"/><linearGradient id="linear-gradient-46" x1="389.35" y1="104.44" x2="393.52" y2="192.01" xlink:href="#linear-gradient"/><linearGradient id="linear-gradient-47" x1="432.08" y1="103.09" x2="436.25" y2="190.66" xlink:href="#linear-gradient"/><linearGradient id="linear-gradient-48" x1="440.62" y1="102.68" x2="444.8" y2="190.47" xlink:href="#linear-gradient"/><linearGradient id="linear-gradient-49" x1="64.22" y1="156.73" x2="377.67" y2="156.73" xlink:href="#linear-gradient"/></defs><g id="Layer_2" data-name="Layer 2"><g id="Layer_1-2" data-name="Layer 1"><path class="cls-2" d="M444.16,94.46H465.1q9.25,0,13.84,4.31t4.58,13.06q0,12.33-9.66,16.23l9.9,22.23h-8.52l-9-20.61H452v20.61h-7.79Zm21,28.49c3.41,0,6-.94,7.75-2.8s2.64-4.59,2.64-8.16-.88-6.19-2.64-8-4.37-2.76-7.83-2.76H452V123Z"/><path class="cls-2" d="M494.8,146.11q-4.14-5.07-4.14-15.94,0-11.11,4.22-16.23t13.55-5.11q9.42,0,13.59,5.15t4.18,16.19q0,10.79-4.14,15.9t-13.63,5.12Q498.94,151.19,494.8,146.11Zm19.68-2.88a7.53,7.53,0,0,0,3-4.46,32.56,32.56,0,0,0,.89-8.6,33.27,33.27,0,0,0-.93-8.93,7.52,7.52,0,0,0-3.08-4.5,11.33,11.33,0,0,0-6-1.34,11.5,11.5,0,0,0-6,1.34,7.49,7.49,0,0,0-3.13,4.54,33.35,33.35,0,0,0-.93,8.89,32.69,32.69,0,0,0,.89,8.56,7.46,7.46,0,0,0,3.09,4.5,11.36,11.36,0,0,0,6.08,1.38A11.2,11.2,0,0,0,514.48,143.23Z"/><path class="cls-2" d="M535.45,109.72h7.47v2.68a30,30,0,0,1,6.33-2.76,21.74,21.74,0,0,1,6-.81c3.41,0,6.09.67,8,2a11,11,0,0,1,4.13,6.29,43.68,43.68,0,0,1,1.22,11.56v21.58h-7.55V128.87a40,40,0,0,0-.6-7.91,6.64,6.64,0,0,0-2.28-4.06,7.89,7.89,0,0,0-4.82-1.26,24.52,24.52,0,0,0-9,1.87l-1.38.65v32.13h-7.55Z"/><path class="cls-2" d="M598.34,94.46h20.93q9.26,0,13.84,4.31t4.59,13.06q0,12.33-9.66,16.23l9.9,22.23h-8.52l-9-20.61H606.13v20.61h-7.79Zm21,28.49c3.4,0,6-.94,7.75-2.8s2.63-4.59,2.63-8.16-.88-6.19-2.63-8-4.37-2.76-7.84-2.76H606.13V123Z"/><path class="cls-2" d="M647.59,147.94q-3-3.24-3-9.33t3.09-8.81q3.08-2.79,9.81-3.45l11.53-1v-3.16q0-3.57-1.55-5.16a6.07,6.07,0,0,0-4.54-1.58,149.55,149.55,0,0,0-15.74,1l-.25-5.51a69.6,69.6,0,0,1,16-2q7.14,0,10.39,3.2t3.24,10.11v19.55a3.75,3.75,0,0,0,1.1,2.48,5.71,5.71,0,0,0,3,1.17l-.24,5.85a19.64,19.64,0,0,1-5.93-.78,12,12,0,0,1-4.3-2.39,32.82,32.82,0,0,1-13.79,3.17Q650.6,151.19,647.59,147.94Zm19.72-4.63,1.71-.56V130.82l-10.55,1a7.24,7.24,0,0,0-4.67,1.91,6.53,6.53,0,0,0-1.5,4.66q0,6.49,5.44,6.5A30,30,0,0,0,667.31,143.31Z"/><path class="cls-2" d="M688.09,109.72h7.46v2.68a31,31,0,0,1,5.84-2.68,18.53,18.53,0,0,1,5.68-.89,16.56,16.56,0,0,1,5.85,1,9.36,9.36,0,0,1,4.22,3,36.17,36.17,0,0,1,7.1-2.92,27.82,27.82,0,0,1,7.83-1.13c3.35,0,6,.67,7.87,2a11.17,11.17,0,0,1,4.06,6.33,43.82,43.82,0,0,1,1.21,11.52v21.58h-7.54V128.87a39.84,39.84,0,0,0-.61-7.91,6.88,6.88,0,0,0-2.19-4.06,7.39,7.39,0,0,0-4.67-1.26,22.28,22.28,0,0,0-4.7.53,23.07,23.07,0,0,0-4.31,1.34l-1.46.65a48.67,48.67,0,0,1,.89,11v21.09H713V129.36a45.77,45.77,0,0,0-.57-8.32,6.73,6.73,0,0,0-2.15-4.14,7.39,7.39,0,0,0-4.67-1.26,20.05,20.05,0,0,0-4.66.57,22.38,22.38,0,0,0-4,1.3l-1.3.65v32.13h-7.54Z"/><path class="cls-2" d="M758.52,150.46l-2.51-.25V92.52h7.54v19a34.74,34.74,0,0,1,5.72-2,23.57,23.57,0,0,1,5.72-.65,15.32,15.32,0,0,1,8.56,2.11,12.16,12.16,0,0,1,4.71,6.69,40.42,40.42,0,0,1,1.5,12.21q0,8.21-1.82,12.78a11.64,11.64,0,0,1-6,6.54q-4.18,2-11.64,1.94A115,115,0,0,1,758.52,150.46ZM777.63,143a7.59,7.59,0,0,0,3.45-4.54,30.32,30.32,0,0,0,1-8.65,32.48,32.48,0,0,0-.85-8.4,7.65,7.65,0,0,0-2.76-4.38,9,9,0,0,0-5.23-1.34,30.11,30.11,0,0,0-9.66,2V144c3.52.28,5.84.41,7,.41A14.42,14.42,0,0,0,777.63,143Z"/><path class="cls-2" d="M801.29,146.36q-4-4.83-4-15.3,0-11.28,4.26-16.76t13.18-5.47q16.56,0,16.56,18.82l-.49,5.52H804.94a18.21,18.21,0,0,0,1.13,6.78,6.57,6.57,0,0,0,3.41,3.45,16.81,16.81,0,0,0,6.65,1c1.68,0,3.57,0,5.69-.12s4-.2,5.67-.37l2.28-.24.16,5.84a95.76,95.76,0,0,1-15.34,1.63Q805.26,151.19,801.29,146.36Zm22.47-19.11q0-6.57-2.07-9.33t-6.94-2.76q-5.1,0-7.46,2.88t-2.44,9.21Z"/><path class="cls-2" d="M840.8,92.52h7.55v57.77H840.8Z"/><path class="cls-2" d="M860.52,92.52h7.55v57.77h-7.55Z"/><path class="cls-2" d="M444.16,195.7h7.16a9.64,9.64,0,0,1,5.93,1.63,6.72,6.72,0,0,1,0,9.89,9.58,9.58,0,0,1-5.93,1.65h-4.65v11.44h-2.51Zm2.51,10.88h4a10.07,10.07,0,0,0,2.83-.35,5.21,5.21,0,0,0,1.86-.92,3.42,3.42,0,0,0,1-1.36,4.44,4.44,0,0,0,.31-1.68,4.36,4.36,0,0,0-.31-1.65,3.63,3.63,0,0,0-1-1.38,4.91,4.91,0,0,0-1.86-.92,10.52,10.52,0,0,0-2.83-.33h-4Z"/><path class="cls-2" d="M466.62,212.8a6.79,6.79,0,0,0,.59,2.29,6,6,0,0,0,1.28,1.86,6.13,6.13,0,0,0,1.85,1.24,5.6,5.6,0,0,0,2.26.45,5.9,5.9,0,0,0,3.18-.85,6.39,6.39,0,0,0,2-2l1.77,1.46a8.73,8.73,0,0,1-3.21,2.64,8.89,8.89,0,0,1-3.77.8,8.63,8.63,0,0,1-3.36-.64,7.8,7.8,0,0,1-2.66-1.79,8.49,8.49,0,0,1-1.75-2.71,8.85,8.85,0,0,1-.65-3.41,9,9,0,0,1,.63-3.4,8.19,8.19,0,0,1,1.74-2.71,8,8,0,0,1,2.6-1.79,8.12,8.12,0,0,1,3.24-.65,7.94,7.94,0,0,1,3.3.66,7.36,7.36,0,0,1,2.45,1.76,7.59,7.59,0,0,1,1.51,2.57,9.34,9.34,0,0,1,.52,3.15v1Zm11.05-1.88a4.88,4.88,0,0,0-5.28-5.21,5.55,5.55,0,0,0-2.16.43,6,6,0,0,0-1.82,1.17,5.67,5.67,0,0,0-1.25,1.67,4.17,4.17,0,0,0-.47,1.94Z"/><path class="cls-2" d="M486.32,209.11c0-.71,0-1.44-.05-2.18s-.06-1.71-.08-2.89h2.25v3h.07a5.23,5.23,0,0,1,.7-1.26,5.4,5.4,0,0,1,1.09-1.1,5.6,5.6,0,0,1,1.5-.78,5.79,5.79,0,0,1,1.93-.3,6.17,6.17,0,0,1,1.7.21l-.45,2.26a4,4,0,0,0-1.32-.17,4.77,4.77,0,0,0-2.26.5,5.1,5.1,0,0,0-1.57,1.29,5.53,5.53,0,0,0-.92,1.68,5.82,5.82,0,0,0-.29,1.74v9.18h-2.3Z"/><path class="cls-2" d="M508,207.9a4.26,4.26,0,0,0-1.39-1.6,3.72,3.72,0,0,0-2.12-.59,5.46,5.46,0,0,0-1.2.14,3.82,3.82,0,0,0-1.1.43,2.54,2.54,0,0,0-.78.75,2,2,0,0,0-.29,1.11,1.83,1.83,0,0,0,.8,1.67,7.67,7.67,0,0,0,2.39.9l2.33.56a5.51,5.51,0,0,1,2.83,1.55,4,4,0,0,1,1.13,2.9,4.68,4.68,0,0,1-.53,2.28,4.75,4.75,0,0,1-1.43,1.56,6.12,6.12,0,0,1-2,.89,10.16,10.16,0,0,1-2.33.27,8.52,8.52,0,0,1-3.5-.71,6.47,6.47,0,0,1-2.76-2.45l2-1.35a5.51,5.51,0,0,0,1.76,1.77,4.69,4.69,0,0,0,2.52.66,6.05,6.05,0,0,0,1.39-.16,4,4,0,0,0,1.23-.48,2.65,2.65,0,0,0,.87-.86,2.19,2.19,0,0,0,.33-1.21,1.9,1.9,0,0,0-.9-1.76,7.88,7.88,0,0,0-2.19-.85l-2.23-.52c-.27-.07-.65-.19-1.13-.35a5.32,5.32,0,0,1-1.39-.73,4.31,4.31,0,0,1-1.16-1.27,3.52,3.52,0,0,1-.49-1.93,4.54,4.54,0,0,1,.51-2.19,4.32,4.32,0,0,1,1.35-1.53,6.42,6.42,0,0,1,1.93-.88,8.28,8.28,0,0,1,2.23-.3,7.58,7.58,0,0,1,3.16.66,4.72,4.72,0,0,1,2.26,2.26Z"/><path class="cls-2" d="M532.34,212.17a8.85,8.85,0,0,1-.64,3.41,8.26,8.26,0,0,1-1.79,2.71,8,8,0,0,1-2.73,1.79,9.75,9.75,0,0,1-6.95,0,8.09,8.09,0,0,1-2.73-1.79,8.26,8.26,0,0,1-1.79-2.71,9.38,9.38,0,0,1,0-6.81,8.06,8.06,0,0,1,4.52-4.5,9.61,9.61,0,0,1,6.95,0,8,8,0,0,1,2.73,1.79,8.16,8.16,0,0,1,1.79,2.71A8.83,8.83,0,0,1,532.34,212.17Zm-2.5,0a7.23,7.23,0,0,0-.43-2.53,6.05,6.05,0,0,0-1.24-2,5.76,5.76,0,0,0-1.93-1.38,6.27,6.27,0,0,0-2.55-.5,6.35,6.35,0,0,0-2.56.5,5.68,5.68,0,0,0-1.91,1.38,6.17,6.17,0,0,0-1.22,2,7.69,7.69,0,0,0,0,5.07,6.27,6.27,0,0,0,1.22,2,5.52,5.52,0,0,0,1.91,1.37,6.19,6.19,0,0,0,2.56.51,6.11,6.11,0,0,0,2.55-.51,5.6,5.6,0,0,0,1.93-1.37,6.15,6.15,0,0,0,1.24-2A7.28,7.28,0,0,0,529.84,212.17Z"/><path class="cls-2" d="M540.44,204c0,.44.07.88.09,1.3s0,.87,0,1.31h.06a5.36,5.36,0,0,1,1-1.22,6.38,6.38,0,0,1,1.32-1,7.4,7.4,0,0,1,1.54-.62,6.15,6.15,0,0,1,1.62-.23,5.92,5.92,0,0,1,4.62,1.65,6.78,6.78,0,0,1,1.5,4.71v10.33h-2.3v-9a7.69,7.69,0,0,0-.93-4.15q-.94-1.44-3.48-1.44a9.42,9.42,0,0,0-1,.14,4.25,4.25,0,0,0-1.69.76,5.48,5.48,0,0,0-1.58,1.88,7.23,7.23,0,0,0-.69,3.47v8.35h-2.3V207.62c0-.44,0-1,0-1.67s-.08-1.31-.12-1.91Z"/><path class="cls-2" d="M569.74,210.33v-.42q0-4.2-4.17-4.2a7.2,7.2,0,0,0-5,1.91L559.21,206q2.29-2.37,6.88-2.37a7.55,7.55,0,0,1,2.28.35,5.15,5.15,0,0,1,1.89,1.06,5.42,5.42,0,0,1,1.29,1.79,6.3,6.3,0,0,1,.49,2.57v7.27c0,.62,0,1.28.08,2s.12,1.25.19,1.69h-2.22c-.07-.4-.12-.83-.16-1.29s0-.91,0-1.35h-.07a6.18,6.18,0,0,1-2.38,2.34,7.15,7.15,0,0,1-3.35.71,7.28,7.28,0,0,1-2.09-.29,5.48,5.48,0,0,1-1.79-.9A4.65,4.65,0,0,1,559,218a4.39,4.39,0,0,1-.47-2.07,4.47,4.47,0,0,1,1-3.11,6.36,6.36,0,0,1,2.58-1.68,12.57,12.57,0,0,1,3.3-.7c1.17-.09,2.24-.14,3.21-.14Zm-1.18,1.88c-.58,0-1.3,0-2.17.09a12.07,12.07,0,0,0-2.51.41,5.43,5.43,0,0,0-2,1,2.35,2.35,0,0,0-.85,1.91,2.7,2.7,0,0,0,.33,1.37,2.76,2.76,0,0,0,.89.94,3.74,3.74,0,0,0,1.23.52,5.79,5.79,0,0,0,1.38.16,5.22,5.22,0,0,0,2.17-.42,4.4,4.4,0,0,0,1.54-1.13,4.48,4.48,0,0,0,.93-1.67,7,7,0,0,0,.29-2v-1.18Z"/><path class="cls-2" d="M581.91,220.31h-2.3V194h2.3Z"/><path class="cls-2" d="M600.57,195.7h8.13a23.32,23.32,0,0,1,5.62.66A12.77,12.77,0,0,1,619,198.5a10.33,10.33,0,0,1,3.14,3.84,12.78,12.78,0,0,1,1.17,5.73,11.75,11.75,0,0,1-1.13,5.27,11.41,11.41,0,0,1-3,3.82,13.49,13.49,0,0,1-4.42,2.35,17.25,17.25,0,0,1-5.25.8h-8.86ZM606,215.3h2.82a15.43,15.43,0,0,0,3.49-.38,7.57,7.57,0,0,0,2.8-1.27,6.06,6.06,0,0,0,1.86-2.33,8.29,8.29,0,0,0,.68-3.53,6.89,6.89,0,0,0-.68-3.14,6.26,6.26,0,0,0-1.83-2.21,7.92,7.92,0,0,0-2.69-1.3,11.92,11.92,0,0,0-3.25-.44H606Z"/><path class="cls-2" d="M641.41,212.07a18.75,18.75,0,0,1-.29,3.3A7.34,7.34,0,0,1,640,218.2a5.75,5.75,0,0,1-2.38,2,9.49,9.49,0,0,1-4.05.74,8.45,8.45,0,0,1-4.93-1.39A6.58,6.58,0,0,1,626,215.2l5-1.22a2.51,2.51,0,0,0,2.44,2.16,2.13,2.13,0,0,0,1.46-.47,2.83,2.83,0,0,0,.76-1.17,6,6,0,0,0,.3-1.51c0-.54,0-1.05,0-1.51V195.7h5.42Z"/><path class="cls-2" d="M680.93,216.41a9.47,9.47,0,0,1-1.55,1.78,10,10,0,0,1-2.1,1.44,12.32,12.32,0,0,1-2.55,1,12,12,0,0,1-2.91.34,13.11,13.11,0,0,1-5.09-1,12.15,12.15,0,0,1-6.76-6.78,14.32,14.32,0,0,1,0-10.36,12.17,12.17,0,0,1,6.76-6.77,13.12,13.12,0,0,1,5.09-1,12.31,12.31,0,0,1,4.59.91,9.25,9.25,0,0,1,3.93,3l-2.19,1.63a6.11,6.11,0,0,0-1-1.18,7.71,7.71,0,0,0-1.52-1,8.85,8.85,0,0,0-1.82-.72,6.91,6.91,0,0,0-1.95-.28,10,10,0,0,0-4.24.87,9.68,9.68,0,0,0-3.18,2.32,10.48,10.48,0,0,0-2,3.39,12.23,12.23,0,0,0,0,8.1,10.28,10.28,0,0,0,2,3.39,9.71,9.71,0,0,0,3.18,2.33,10,10,0,0,0,4.24.87,10.42,10.42,0,0,0,1.93-.18,7.73,7.73,0,0,0,1.88-.59,6.91,6.91,0,0,0,1.74-1.13,8.25,8.25,0,0,0,1.51-1.79Z"/><path class="cls-2" d="M702.48,212.17a9,9,0,0,1-.64,3.41,8.06,8.06,0,0,1-4.52,4.5,9.2,9.2,0,0,1-3.5.64,9,9,0,0,1-3.45-.64,8,8,0,0,1-2.73-1.79,8.11,8.11,0,0,1-1.79-2.71,9.24,9.24,0,0,1,0-6.81,8.06,8.06,0,0,1,4.52-4.5,9,9,0,0,1,3.45-.65,9.2,9.2,0,0,1,3.5.65,8.06,8.06,0,0,1,4.52,4.5A9,9,0,0,1,702.48,212.17Zm-2.5,0a7.23,7.23,0,0,0-.44-2.53,6,6,0,0,0-1.23-2,5.87,5.87,0,0,0-1.93-1.38,6.78,6.78,0,0,0-5.11,0,5.68,5.68,0,0,0-1.91,1.38,6.17,6.17,0,0,0-1.22,2,7.69,7.69,0,0,0,0,5.07,6.27,6.27,0,0,0,1.22,2,5.52,5.52,0,0,0,1.91,1.37,6.66,6.66,0,0,0,5.11,0,5.7,5.7,0,0,0,1.93-1.37,6.13,6.13,0,0,0,1.23-2A7.29,7.29,0,0,0,700,212.17Z"/><path class="cls-2" d="M720.14,220.31c0-.44-.08-.88-.09-1.31s0-.86,0-1.3H720a5.31,5.31,0,0,1-1,1.22,6.51,6.51,0,0,1-1.32,1,7.2,7.2,0,0,1-1.55.63,6,6,0,0,1-1.62.22,5.94,5.94,0,0,1-4.62-1.65,6.81,6.81,0,0,1-1.49-4.71V204h2.29v9a12.17,12.17,0,0,0,.21,2.4,4.68,4.68,0,0,0,.71,1.76,3.15,3.15,0,0,0,1.36,1.07,5.33,5.33,0,0,0,2.14.37c.11,0,.44,0,1-.14a4.27,4.27,0,0,0,1.68-.76,5.71,5.71,0,0,0,1.59-1.88,7.3,7.3,0,0,0,.69-3.48V204h2.29v12.69c0,.44,0,1,.06,1.67s.07,1.3.12,1.91Z"/><path class="cls-2" d="M729.69,209.11c0-.71,0-1.44-.05-2.18s-.06-1.71-.09-2.89h2.26v3h.07a5.23,5.23,0,0,1,.7-1.26,5.4,5.4,0,0,1,1.09-1.1,5.6,5.6,0,0,1,1.5-.78,5.79,5.79,0,0,1,1.93-.3,6.17,6.17,0,0,1,1.7.21l-.45,2.26a4,4,0,0,0-1.32-.17,4.77,4.77,0,0,0-2.26.5,5.1,5.1,0,0,0-1.57,1.29,5.53,5.53,0,0,0-.92,1.68,5.82,5.82,0,0,0-.29,1.74v9.18h-2.3Z"/><path class="cls-2" d="M751.35,207.9a4.26,4.26,0,0,0-1.39-1.6,3.72,3.72,0,0,0-2.12-.59,5.46,5.46,0,0,0-1.2.14,3.82,3.82,0,0,0-1.1.43,2.54,2.54,0,0,0-.78.75,2,2,0,0,0-.29,1.11,1.83,1.83,0,0,0,.8,1.67,7.67,7.67,0,0,0,2.39.9l2.33.56a5.51,5.51,0,0,1,2.83,1.55,4,4,0,0,1,1.13,2.9,4.45,4.45,0,0,1-2,3.84,6.12,6.12,0,0,1-2,.89,10.16,10.16,0,0,1-2.33.27,8.52,8.52,0,0,1-3.5-.71,6.47,6.47,0,0,1-2.76-2.45l2-1.35a5.51,5.51,0,0,0,1.76,1.77,4.66,4.66,0,0,0,2.52.66,6.05,6.05,0,0,0,1.39-.16,4,4,0,0,0,1.23-.48,2.65,2.65,0,0,0,.87-.86,2.19,2.19,0,0,0,.33-1.21,1.9,1.9,0,0,0-.9-1.76,8,8,0,0,0-2.19-.85l-2.23-.52c-.27-.07-.65-.19-1.13-.35a5.32,5.32,0,0,1-1.39-.73,4.31,4.31,0,0,1-1.16-1.27,3.61,3.61,0,0,1-.49-1.93,4.54,4.54,0,0,1,.51-2.19,4.32,4.32,0,0,1,1.35-1.53,6.42,6.42,0,0,1,1.93-.88,8.28,8.28,0,0,1,2.23-.3,7.58,7.58,0,0,1,3.16.66,4.72,4.72,0,0,1,2.26,2.26Z"/><path class="cls-2" d="M760.87,212.8a7,7,0,0,0,.59,2.29,6,6,0,0,0,1.29,1.86,6.09,6.09,0,0,0,1.84,1.24,5.63,5.63,0,0,0,2.26.45,5.85,5.85,0,0,0,3.18-.85,6.39,6.39,0,0,0,2-2l1.78,1.46a8.47,8.47,0,0,1-7,3.44,8.58,8.58,0,0,1-3.35-.64,7.7,7.7,0,0,1-2.66-1.79,8.35,8.35,0,0,1-1.76-2.71,8.85,8.85,0,0,1-.64-3.41,9.22,9.22,0,0,1,.62-3.4,8.19,8.19,0,0,1,1.74-2.71,7.89,7.89,0,0,1,2.61-1.79,8,8,0,0,1,3.23-.65,7.9,7.9,0,0,1,3.3.66,7.25,7.25,0,0,1,4,4.33,9.34,9.34,0,0,1,.53,3.15v1Zm11-1.88a5.19,5.19,0,0,0-1.39-3.77,5.14,5.14,0,0,0-3.89-1.44,5.5,5.5,0,0,0-2.15.43,6,6,0,0,0-1.83,1.17,5.67,5.67,0,0,0-1.25,1.67,4.3,4.3,0,0,0-.47,1.94Z"/><path class="cls-2" d="M789,207.9a4.17,4.17,0,0,0-1.39-1.6,3.68,3.68,0,0,0-2.12-.59,5.6,5.6,0,0,0-1.2.14,3.76,3.76,0,0,0-1.09.43,2.44,2.44,0,0,0-.78.75,2,2,0,0,0-.3,1.11,1.85,1.85,0,0,0,.8,1.67,7.74,7.74,0,0,0,2.4.9l2.33.56a5.55,5.55,0,0,1,2.83,1.55,4,4,0,0,1,1.13,2.9A4.58,4.58,0,0,1,791,218a4.72,4.72,0,0,1-1.42,1.56,6.08,6.08,0,0,1-2,.89,10.07,10.07,0,0,1-2.32.27,8.49,8.49,0,0,1-3.5-.71,6.36,6.36,0,0,1-2.76-2.45l2-1.35a5.41,5.41,0,0,0,1.76,1.77,4.64,4.64,0,0,0,2.52.66,6.05,6.05,0,0,0,1.39-.16,4,4,0,0,0,1.23-.48,2.65,2.65,0,0,0,.87-.86,2.19,2.19,0,0,0,.33-1.21,1.9,1.9,0,0,0-.9-1.76,8.13,8.13,0,0,0-2.19-.85l-2.23-.52c-.28-.07-.65-.19-1.13-.35a5.17,5.17,0,0,1-1.39-.73,4.31,4.31,0,0,1-1.16-1.27,3.52,3.52,0,0,1-.49-1.93,4.65,4.65,0,0,1,.5-2.19,4.45,4.45,0,0,1,1.36-1.53,6.42,6.42,0,0,1,1.93-.88,8.26,8.26,0,0,1,2.22-.3,7.63,7.63,0,0,1,3.17.66,4.72,4.72,0,0,1,2.26,2.26Z"/><circle class="cls-3" cx="156.03" cy="156.73" r="153.71"/><circle class="cls-4" cx="219.54" cy="156.73" r="153.71"/><g class="cls-5"><rect class="cls-6" x="141.54" y="137.56" width="4.22" height="38.91"/><rect class="cls-7" x="312.71" y="88.26" width="4.22" height="137.52"/><rect class="cls-8" x="150.09" y="86.78" width="4.22" height="140.47"/><rect class="cls-9" x="304.15" y="106.51" width="4.22" height="101.02"/><rect class="cls-10" x="321.27" y="98.86" width="4.23" height="116.31"/><rect class="cls-11" x="167.21" y="119.79" width="4.22" height="74.46"/><rect class="cls-12" x="329.83" y="112.55" width="4.23" height="88.94"/><rect class="cls-13" x="287.03" y="112.55" width="4.22" height="88.94"/><rect class="cls-14" x="415.42" y="112.55" width="4.22" height="88.94"/><rect class="cls-15" x="261.36" y="112.55" width="4.23" height="88.94"/><rect class="cls-16" x="175.77" y="126.46" width="4.22" height="61.12"/><rect class="cls-17" x="184.33" y="131.05" width="4.22" height="51.93"/><rect class="cls-18" x="346.95" y="126.23" width="4.23" height="61.57"/><rect class="cls-19" x="269.92" y="126.23" width="4.23" height="61.57"/><rect class="cls-20" x="244.24" y="131.24" width="4.22" height="51.55"/><rect class="cls-21" x="192.89" y="142.95" width="4.22" height="28.14"/><rect class="cls-22" x="235.68" y="136.97" width="4.22" height="40.09"/><rect class="cls-23" x="252.8" y="133.07" width="4.22" height="47.89"/><rect class="cls-24" x="227.12" y="142.73" width="4.22" height="28.58"/><rect class="cls-25" x="406.86" y="125.17" width="4.22" height="63.69"/><rect class="cls-26" x="355.51" y="133.07" width="4.22" height="47.89"/><rect class="cls-27" x="201.45" y="146.69" width="4.22" height="20.65"/><rect class="cls-28" x="218.56" y="147.44" width="4.22" height="19.16"/><rect class="cls-29" x="278.47" y="139.91" width="4.23" height="34.21"/><rect class="cls-30" x="338.39" y="139.91" width="4.23" height="34.21"/><rect class="cls-31" x="398.3" y="134.5" width="4.22" height="45.03"/><rect class="cls-32" x="381.18" y="139.91" width="4.22" height="34.21"/><rect class="cls-33" x="423.98" y="139.91" width="4.22" height="34.21"/><rect class="cls-34" x="132.98" y="98.86" width="4.22" height="116.31"/><rect class="cls-35" x="295.59" y="98.86" width="4.22" height="116.31"/><rect class="cls-36" x="115.86" y="112.55" width="4.23" height="88.94"/><rect class="cls-37" x="98.74" y="126.23" width="4.23" height="61.57"/><rect class="cls-38" x="124.42" y="126.23" width="4.22" height="61.57"/><rect class="cls-39" x="158.65" y="126.23" width="4.22" height="61.57"/><rect class="cls-40" x="90.18" y="139.26" width="4.22" height="35.52"/><rect class="cls-41" x="107.3" y="133.07" width="4.23" height="47.89"/><rect class="cls-42" x="47.39" y="133.07" width="4.23" height="47.89"/><rect class="cls-43" x="81.62" y="144.33" width="4.22" height="25.37"/><rect class="cls-44" x="55.94" y="139.91" width="4.23" height="34.21"/><rect class="cls-45" x="73.06" y="146.76" width="4.22" height="20.52"/><rect class="cls-46" x="38.83" y="146.76" width="4.23" height="20.52"/><rect class="cls-47" x="64.5" y="146.76" width="4.22" height="20.52"/><rect class="cls-48" x="210.01" y="149.69" width="4.22" height="14.65"/><rect class="cls-49" x="364.06" y="146.76" width="4.22" height="20.52"/><rect class="cls-50" x="372.62" y="146.76" width="4.22" height="20.52"/><rect class="cls-51" x="389.74" y="146.76" width="4.23" height="20.52"/><rect class="cls-52" x="432.54" y="146.76" width="4.22" height="20.52"/><rect class="cls-53" x="441.1" y="151.15" width="4.22" height="11.73"/></g><path class="cls-54" d="M220.94,313.45c-86.41,0-156.72-70.31-156.72-156.73S134.53,0,220.94,0,377.67,70.31,377.67,156.72,307.36,313.45,220.94,313.45ZM220.94,6C137.85,6,70.25,73.63,70.25,156.72s67.6,150.7,150.69,150.7,150.7-67.6,150.7-150.7S304,6,220.94,6Z"/></g></g></svg>