<?xml version="1.0" encoding="iso-8859-1"?>
<!-- Generator: Adobe Illustrator 18.0.0, SVG Export Plug-In . SVG Version: 6.00 Build 0)  -->
<!DOCTYPE svg PUBLIC "-//W3C//DTD SVG 1.1//EN" "http://www.w3.org/Graphics/SVG/1.1/DTD/svg11.dtd">
<svg version="1.1" id="Capa_1" xmlns="http://www.w3.org/2000/svg" xmlns:xlink="http://www.w3.org/1999/xlink" x="0px" y="0px"
	 viewBox="0 0 468.742 468.742" style="enable-background:new 0 0 468.742 468.742;" xml:space="preserve">
<g>
	<path d="M257.233,194.246c-9.159-16.501-28.869-25.083-47.708-19.53c-21.807,6.428-34.319,29.398-27.891,51.205l17.66,59.912
		c1.283,4.354,5.268,7.176,9.587,7.175c0.936,0,1.888-0.132,2.832-0.411l59.912-17.659c21.807-6.427,34.319-29.398,27.891-51.205
		C293.963,204.893,276.071,192.988,257.233,194.246z M280.333,229.388c1.603,5.439,0.992,11.178-1.72,16.158
		c-2.713,4.98-7.202,8.605-12.642,10.209l-50.32,14.832l-14.833-50.32c-3.31-11.229,3.133-23.057,14.362-26.367
		c1.996-0.588,4.01-0.868,5.993-0.868c9.172,0,17.653,5.997,20.375,15.23c1.561,5.297,7.121,8.327,12.419,6.765
		C265.193,211.718,277.023,218.159,280.333,229.388z"/>
	<path d="M279.46,153.438c-22.113-12.045-47.592-14.758-71.745-7.638c-24.153,7.119-44.088,23.218-56.132,45.331
		c-12.045,22.112-14.757,47.592-7.638,71.745c7.119,24.153,23.218,44.088,45.331,56.133c14.032,7.644,29.418,11.528,44.963,11.528
		c8.951,0,17.956-1.289,26.782-3.89c24.153-7.119,44.088-23.218,56.132-45.331c12.045-22.112,14.757-47.592,7.638-71.745
		S301.573,165.483,279.46,153.438z M299.589,271.749c-9.489,17.421-25.195,30.104-44.223,35.713
		c-19.028,5.609-39.103,3.472-56.524-6.018c-17.421-9.489-30.104-25.195-35.713-44.224c-5.609-19.029-3.472-39.103,6.018-56.524
		s25.195-30.104,44.224-35.713c6.954-2.05,14.046-3.065,21.099-3.065c12.246,0,24.37,3.062,35.424,9.083
		c17.421,9.489,30.104,25.195,35.713,44.224C311.216,234.254,309.078,254.328,299.589,271.749z"/>
	<path d="M241.696,222.769c-7.419-4.041-16.742-1.292-20.782,6.126c-4.04,7.419-1.292,16.741,6.126,20.782
		c2.321,1.264,4.828,1.863,7.302,1.863c5.433,0,10.704-2.892,13.479-7.989c1.958-3.593,2.398-7.734,1.241-11.659
		S245.29,224.727,241.696,222.769z M238.478,238.461c-1.234,2.266-4.082,3.106-6.348,1.872c-1.082-0.589-1.903-1.605-2.251-2.787
		c-0.348-1.181-0.21-2.479,0.379-3.561c0.848-1.557,2.458-2.441,4.118-2.441c0.755,0,1.521,0.183,2.23,0.569
		C238.872,233.348,239.712,236.195,238.478,238.461z"/>
	<path d="M403.038,76.197V28c0-15.439-12.561-28-28-28s-28,12.561-28,28v4.792c-34.357-19.076-72.951-29.09-112.667-29.09
		c-62.11,0-120.502,24.187-164.419,68.105C26.037,115.725,1.851,174.115,1.851,236.222c0,62.111,24.186,120.502,68.101,164.418
		c43.916,43.916,102.308,68.102,164.419,68.102c62.107,0,120.497-24.186,164.415-68.102
		c43.918-43.917,68.105-102.309,68.105-164.418C466.891,176.24,444.24,119.583,403.038,76.197z M367.038,28c0-4.411,3.589-8,8-8
		s8,3.589,8,8v90.492h-16V28z M234.371,448.742c-56.769,0-110.138-22.105-150.276-62.244
		c-40.139-40.138-62.244-93.507-62.244-150.276c0-117.184,95.336-212.52,212.52-212.52c40.091,0,78.925,11.159,112.667,32.309
		v72.481c0,5.523,4.477,10,10,10h8v70h-8c-5.523,0-10,4.477-10,10v70c0,5.523,4.477,10,10,10h36c5.523,0,10-4.477,10-10v-70
		c0-5.523-4.477-10-10-10h-8v-70h8c5.523,0,10-4.477,10-10v-21.6c28.437,36.948,43.853,82.009,43.853,129.33
		C446.891,353.406,351.555,448.742,234.371,448.742z M383.038,228.492v50h-16v-50H383.038z"/>
	<path d="M412.609,149.989c-2.408-4.97-8.39-7.045-13.36-4.638c-4.97,2.409-7.046,8.39-4.638,13.36
		c11.758,24.26,17.719,50.339,17.719,77.512c0,98.129-79.833,177.962-177.962,177.962S56.406,334.352,56.406,236.223
		S136.239,58.261,234.368,58.261c32.165,0,63.678,8.669,91.133,25.071c4.74,2.832,10.881,1.285,13.713-3.456
		c2.833-4.741,1.285-10.881-3.456-13.713c-30.554-18.253-65.614-27.902-101.39-27.902c-109.157,0-197.962,88.806-197.962,197.962
		s88.806,197.962,197.962,197.962S432.33,345.38,432.33,236.223C432.33,206.004,425.695,176.991,412.609,149.989z"/>
	<path d="M306.352,360.28c-21.762,12.657-46.654,19.347-71.984,19.347c-79.073,0-143.403-64.331-143.403-143.403
		S155.295,92.82,234.368,92.82c32.176,0,62.578,10.409,87.918,30.103c4.36,3.389,10.643,2.602,14.032-1.76
		c3.389-4.361,2.601-10.643-1.76-14.032c-28.883-22.446-63.528-34.311-100.19-34.311c-90.101,0-163.403,73.302-163.403,163.403
		s73.302,163.403,163.403,163.403c28.858,0,57.227-7.627,82.039-22.058c24.067-13.997,44.306-34.048,58.53-57.986
		c2.821-4.748,1.26-10.884-3.488-13.705c-4.746-2.821-10.883-1.26-13.705,3.488C345.254,330.384,327.483,347.99,306.352,360.28z"/>
	<path d="M234.368,107.379c-71.045,0-128.844,57.799-128.844,128.844s57.799,128.844,128.844,128.844
		c44.953,0,85.934-22.845,109.623-61.111c2.907-4.696,1.457-10.859-3.239-13.766c-4.697-2.908-10.859-1.457-13.766,3.239
		c-20.018,32.334-54.641,51.638-92.618,51.638c-60.017,0-108.844-48.827-108.844-108.844s48.827-108.844,108.844-108.844
		c46.395,0,87.746,29.441,102.897,73.259c1.804,5.22,7.501,7.988,12.719,6.184c5.22-1.805,7.988-7.5,6.184-12.719
		C338.232,142.23,289.284,107.379,234.368,107.379z"/>
</g>
<g>
</g>
<g>
</g>
<g>
</g>
<g>
</g>
<g>
</g>
<g>
</g>
<g>
</g>
<g>
</g>
<g>
</g>
<g>
</g>
<g>
</g>
<g>
</g>
<g>
</g>
<g>
</g>
<g>
</g>
</svg>
